<?xml version="1.0" standalone="no"?>
<!DOCTYPE svg PUBLIC "-//W3C//DTD SVG 20010904//EN"
 "http://www.w3.org/TR/2001/REC-SVG-20010904/DTD/svg10.dtd">
<svg version="1.0" xmlns="http://www.w3.org/2000/svg"
 width="297.000000pt" height="297.000000pt" viewBox="0 0 297.000000 297.000000"
 preserveAspectRatio="xMidYMid meet">

<g transform="translate(0.000000,297.000000) scale(0.100000,-0.100000)"
fill="#000000" stroke="none">
<path d="M1375 2591 c-93 -42 -162 -158 -152 -257 11 -110 85 -201 186 -231
102 -29 196 -1 268 81 87 99 85 254 -5 350 -67 71 -206 98 -297 57z m125 -46
c0 -16 -6 -25 -15 -25 -9 0 -15 9 -15 25 0 16 6 25 15 25 9 0 15 -9 15 -25z
m-103 -24 c10 -15 10 -20 0 -24 -11 -4 -36 20 -37 36 0 15 26 6 37 -12z m203
5 c0 -16 -24 -38 -33 -30 -8 9 11 44 23 44 6 0 10 -6 10 -14z m58 -82 c-24
-24 -44 -7 -22 17 12 13 21 16 28 9 7 -7 5 -15 -6 -26z m-321 11 c3 -9 3 -19
-1 -22 -7 -7 -36 16 -36 28 0 15 30 10 37 -6z m165 -26 l3 -41 28 22 c25 20
28 20 34 4 5 -13 -5 -28 -37 -56 -24 -21 -48 -37 -54 -35 -6 2 -12 35 -14 75
-3 66 -1 72 17 72 16 0 20 -8 23 -41z m-182 -74 c0 -10 -10 -15 -30 -15 -20 0
-30 5 -30 15 0 10 10 15 30 15 20 0 30 -5 30 -15z m380 0 c0 -9 -9 -15 -25
-15 -16 0 -25 6 -25 15 0 9 9 15 25 15 16 0 25 -6 25 -15z m-360 -90 c0 -8 -9
-19 -19 -24 -25 -14 -38 14 -13 28 24 14 32 13 32 -4z m330 -15 c0 -6 -6 -10
-14 -10 -16 0 -38 24 -30 33 9 8 44 -11 44 -23z m-270 -54 c0 -7 -6 -19 -14
-25 -19 -16 -32 5 -16 24 16 19 30 19 30 1z m199 -5 c10 -17 6 -31 -9 -31 -4
0 -12 11 -18 25 -9 20 -9 25 3 25 8 0 19 -8 24 -19z m-101 -29 c2 -15 -2 -22
-12 -22 -11 0 -16 9 -16 26 0 31 23 28 28 -4z"/>
<path d="M2056 2275 c-103 -26 -209 -131 -223 -222 -6 -35 -5 -37 10 -24 20
16 20 19 2 -49 -8 -30 -13 -55 -12 -57 2 -1 20 9 41 23 21 14 39 24 40 22 20
-26 26 -70 16 -108 -12 -44 -5 -59 28 -60 6 0 29 -18 49 -41 56 -62 62 -63
127 -23 41 26 60 33 69 25 9 -7 16 -5 25 9 9 14 8 20 -1 24 -9 5 -9 7 1 12 6
3 12 23 12 44 0 49 20 67 45 40 16 -18 19 -18 42 -3 25 16 25 19 22 128 -4
100 -7 117 -34 170 -21 42 -40 63 -65 76 -45 22 -135 29 -194 14z m57 -266
c44 -50 47 -52 47 -27 0 50 46 74 82 41 27 -24 23 -69 -7 -89 -19 -13 -25 -25
-25 -53 0 -41 -13 -56 -91 -109 -45 -30 -47 -31 -63 -13 -9 10 -14 25 -10 35
4 12 2 15 -9 11 -8 -4 -17 1 -20 9 -4 9 -18 16 -32 16 -29 0 -28 -3 -14 41 6
19 13 41 16 49 4 13 6 12 14 -2 15 -26 32 -22 27 7 -3 15 -1 22 5 18 6 -4 8 0
4 11 -5 12 0 24 15 36 21 17 21 19 6 25 -12 5 -30 -4 -55 -24 -46 -38 -53 -38
-53 -5 0 16 15 43 40 71 22 25 40 51 40 57 1 6 9 -3 18 -20 9 -17 38 -55 65
-85z"/>
<path d="M775 2270 c-54 -8 -96 -32 -133 -74 -40 -46 -52 -91 -52 -202 0 -76
3 -94 18 -108 18 -15 20 -15 37 4 10 11 22 20 27 20 13 0 27 -45 31 -93 3 -54
14 -72 33 -57 10 9 26 4 70 -24 65 -40 71 -39 130 26 21 24 39 41 39 39 0 -7
45 10 45 17 0 4 -5 24 -11 45 -8 31 -7 45 4 70 9 18 19 50 22 72 4 22 18 52
31 66 28 29 45 79 37 109 -4 17 -11 19 -42 14 -29 -4 -49 2 -102 30 -78 42
-129 54 -184 46z m189 -206 c31 -11 46 -21 42 -29 -3 -8 -8 -30 -11 -49 l-7
-36 -45 37 c-33 27 -47 33 -56 24 -8 -8 -6 -15 12 -27 14 -10 19 -20 13 -26
-13 -13 -2 -58 14 -58 8 0 14 5 14 10 0 26 19 6 28 -30 10 -42 8 -50 -19 -50
-9 0 -20 -7 -23 -16 -3 -9 -13 -14 -21 -10 -10 4 -14 -1 -12 -15 1 -12 -6 -26
-15 -32 -14 -9 -29 -3 -82 33 -62 42 -66 47 -66 83 0 30 -6 44 -25 59 -42 33
-26 108 24 108 23 0 48 -28 53 -58 3 -20 9 -17 63 36 33 32 63 59 66 60 3 1
27 -5 53 -14z"/>
<path d="M320 2155 c0 -13 13 -15 80 -13 107 4 108 22 3 26 -70 2 -83 0 -83
-13z"/>
<path d="M2420 2155 c0 -13 13 -15 85 -13 48 2 85 7 85 13 0 6 -37 11 -85 13
-72 2 -85 0 -85 -13z"/>
<path d="M152 2083 c3 -16 19 -18 163 -18 144 0 160 2 163 18 3 16 -10 17
-163 17 -153 0 -166 -1 -163 -17z"/>
<path d="M2422 2083 c3 -16 19 -18 173 -18 154 0 170 2 173 18 3 16 -10 17
-173 17 -163 0 -176 -1 -173 -17z"/>
<path d="M120 2006 c0 -24 34 -28 193 -25 171 3 187 6 187 25 0 11 -35 14
-190 14 -158 0 -190 -2 -190 -14z"/>
<path d="M2420 2005 c0 -8 3 -15 8 -16 4 0 16 -3 27 -5 11 -3 95 -2 188 2 132
5 167 9 167 20 0 11 -35 14 -195 14 -167 0 -195 -2 -195 -15z"/>
<path d="M107 1934 c-18 -19 20 -24 174 -24 144 0 169 2 169 15 0 13 -25 15
-168 15 -93 0 -172 -3 -175 -6z"/>
<path d="M2460 1925 c0 -13 27 -15 180 -15 153 0 180 2 180 15 0 13 -27 15
-180 15 -153 0 -180 -2 -180 -15z"/>
<path d="M563 1859 c-8 -8 3 -28 40 -75 28 -35 54 -64 59 -64 4 0 12 9 18 20
9 17 4 28 -41 75 -56 59 -59 61 -76 44z"/>
<path d="M2297 1812 c-56 -57 -57 -59 -39 -76 19 -16 21 -15 71 48 46 58 57
86 33 86 -4 0 -34 -26 -65 -58z"/>
<path d="M1365 1836 c-10 -7 -40 -96 -79 -231 l-63 -220 -152 -3 c-125 -2
-151 -5 -151 -17 0 -13 28 -15 183 -15 l182 0 67 231 c36 128 64 238 61 245
-7 19 -29 24 -48 10z"/>
<path d="M1537 1835 c-9 -8 -14 -21 -12 -28 2 -7 23 -75 45 -152 23 -77 52
-177 66 -222 l25 -83 179 0 c153 0 180 2 180 15 0 13 -23 15 -148 15 l-149 0
-65 222 c-48 167 -70 225 -85 235 -18 12 -23 12 -36 -2z"/>
<path d="M455 1807 c-71 -39 -133 -192 -155 -383 -16 -146 -13 -370 6 -411 32
-65 40 -67 318 -73 l250 -5 9 -35 c6 -19 36 -134 67 -255 l57 -220 133 -3 c82
-2 137 1 144 8 18 18 -26 65 -65 68 l-34 3 -68 279 c-46 185 -75 284 -86 294
-15 13 -50 16 -220 16 -216 0 -242 5 -275 52 -26 37 -20 95 12 128 l29 28 -23
11 c-30 13 -45 43 -89 184 -25 78 -35 126 -30 144 3 14 10 22 14 17 5 -5 29
-75 55 -156 42 -132 50 -149 76 -163 41 -21 49 -20 200 28 127 40 135 44 138
70 3 28 -32 97 -49 97 -6 0 -54 -15 -108 -34 l-99 -35 -36 132 c-48 171 -53
183 -88 212 -36 30 -33 30 -83 2z"/>
<path d="M2388 1803 c-35 -38 -40 -50 -83 -205 l-38 -136 -98 34 c-109 39
-127 37 -148 -15 -27 -64 -19 -71 129 -119 143 -46 182 -48 214 -13 9 10 37
80 61 157 49 147 59 168 69 136 4 -13 -10 -74 -35 -154 -33 -104 -49 -140 -75
-165 -17 -18 -28 -33 -23 -33 6 0 21 -11 34 -25 36 -35 34 -94 -4 -137 l-29
-33 -221 -3 c-215 -3 -222 -4 -235 -25 -7 -12 -44 -145 -81 -294 l-67 -273
-33 0 c-36 0 -65 -26 -65 -58 0 -22 3 -22 138 -22 l137 0 53 208 c29 114 60
231 68 260 l16 52 239 0 c274 0 288 3 320 73 34 75 22 389 -22 562 -35 136
-82 213 -148 241 -44 18 -43 18 -73 -13z"/>
<path d="M677 1692 c-27 -28 -35 -66 -18 -76 5 -4 12 -25 16 -49 9 -53 11 -56
34 -50 16 4 17 9 9 43 -8 30 -7 50 5 84 14 41 14 46 -2 60 -16 15 -20 14 -44
-12z"/>
<path d="M2212 1700 c-10 -16 -9 -27 3 -56 12 -29 13 -45 4 -77 -8 -31 -8 -42
2 -48 20 -12 27 -2 35 46 3 25 10 48 15 51 17 10 9 49 -15 77 -28 32 -28 32
-44 7z"/>
<path d="M96 1541 c-16 -18 -15 -34 28 -312 48 -312 51 -324 114 -364 17 -11
31 -27 32 -35 0 -9 7 -26 16 -38 14 -20 23 -22 125 -22 l109 0 0 -100 0 -100
-32 0 c-18 -1 -51 -8 -73 -17 -22 -8 -56 -15 -76 -14 -31 1 -39 -4 -62 -40
-31 -47 -33 -65 -10 -91 15 -17 14 -18 -24 -18 -45 0 -70 -19 -51 -38 15 -15
2534 -17 2557 -3 29 18 4 41 -45 41 -45 0 -46 1 -31 18 20 22 22 68 3 79 -7 4
-18 18 -25 31 -9 17 -20 22 -44 20 -18 -1 -42 4 -53 10 -12 6 -47 15 -78 18
l-56 7 0 98 0 99 105 0 c92 0 108 3 125 20 11 11 20 28 20 38 1 9 15 26 32 37
60 38 65 54 104 315 19 135 39 264 43 287 9 48 -4 86 -33 91 -28 6 -63 -6 -70
-23 -8 -21 -66 -399 -66 -429 0 -14 11 -33 25 -44 23 -18 24 -23 16 -67 -5
-28 -19 -57 -33 -72 l-25 -25 -272 -1 c-257 -2 -273 -3 -287 -21 -19 -27 -18
-70 4 -89 15 -14 40 -17 130 -17 l112 0 0 -100 0 -100 -32 0 c-18 -1 -51 -8
-73 -16 -22 -8 -55 -16 -74 -17 -22 -1 -38 -9 -45 -22 -6 -11 -17 -24 -25 -31
-19 -15 -17 -65 5 -81 15 -11 -89 -13 -631 -13 -627 0 -648 1 -632 18 21 23
22 56 1 73 -9 7 -20 24 -25 37 -8 20 -15 23 -41 20 -17 -3 -44 1 -59 9 -15 8
-50 16 -78 20 l-51 6 0 98 0 99 113 0 c101 0 116 2 132 20 25 27 22 70 -6 92
-21 18 -42 19 -288 17 l-265 -1 -26 29 c-16 17 -30 48 -34 73 -6 37 -3 45 19
66 14 12 25 27 25 31 0 42 -66 423 -76 441 -18 28 -64 30 -88 3z m607 -1067
c30 -5 37 -11 37 -30 0 -12 7 -30 16 -38 14 -15 -4 -16 -202 -16 -210 0 -217
1 -201 18 10 10 17 28 17 40 0 15 8 22 28 25 45 7 264 7 305 1z m1830 0 c25
-5 37 -12 37 -23 0 -9 7 -27 16 -39 l15 -22 -211 0 -211 0 15 22 c9 12 16 30
16 40 0 9 10 18 23 21 36 7 258 7 300 1z"/>
<path d="M924 1521 c11 -12 35 -20 72 -23 59 -5 100 -33 106 -72 5 -36 33 -26
31 12 -3 65 -63 102 -164 102 -60 0 -62 -1 -45 -19z"/>
<path d="M1883 1527 c-47 -17 -75 -49 -76 -88 -2 -25 3 -34 16 -37 12 -3 19 5
23 27 9 43 36 63 94 69 36 3 54 10 61 23 9 17 6 19 -38 18 -26 0 -63 -6 -80
-12z"/>
<path d="M960 1440 c0 -15 7 -20 29 -20 17 0 33 -4 36 -10 10 -16 35 -12 42 6
9 24 -23 44 -69 44 -31 0 -38 -4 -38 -20z"/>
<path d="M1886 1444 c-9 -8 -16 -20 -16 -25 0 -15 30 -23 43 -10 6 6 21 11 34
11 16 0 23 6 23 20 0 16 -7 20 -34 20 -19 0 -42 -7 -50 -16z"/>
<path d="M828 1323 c-24 -29 6 -33 237 -33 195 0 234 2 238 15 4 8 2 17 -3 20
-5 3 -111 6 -235 8 -167 1 -229 -1 -237 -10z"/>
<path d="M1862 1330 c-122 -3 -222 -8 -222 -12 0 -5 0 -13 0 -18 0 -7 80 -9
232 -8 206 3 233 5 236 19 2 9 -3 18 -10 20 -7 2 -113 2 -236 -1z"/>
<path d="M584 1252 c-39 -25 -36 -90 5 -111 13 -8 294 -11 886 -11 l866 0 24
25 c30 29 32 54 5 83 l-21 22 -877 0 c-482 0 -882 -4 -888 -8z"/>
</g>
</svg>
