<?xml version="1.0" standalone="no"?>
<!DOCTYPE svg PUBLIC "-//W3C//DTD SVG 20010904//EN"
 "http://www.w3.org/TR/2001/REC-SVG-20010904/DTD/svg10.dtd">
<svg version="1.0" xmlns="http://www.w3.org/2000/svg"
 width="297.000000pt" height="297.000000pt" viewBox="0 0 297.000000 297.000000"
 preserveAspectRatio="xMidYMid meet">

<g transform="translate(0.000000,297.000000) scale(0.100000,-0.100000)"
fill="#000000" stroke="none">
<path d="M1325 2733 c-159 -22 -384 -112 -522 -208 -33 -24 -76 -46 -95 -50
-18 -4 -43 -13 -55 -21 -15 -9 -36 -12 -66 -8 -37 5 -48 3 -66 -15 -11 -11
-21 -31 -21 -43 -1 -15 -13 -30 -33 -43 -17 -11 -38 -32 -47 -48 -14 -25 -13
-30 2 -57 14 -24 15 -36 7 -57 -6 -15 -10 -57 -10 -93 0 -36 -2 -90 -5 -121
-5 -52 -4 -59 25 -92 17 -19 31 -37 31 -39 0 -3 -19 -10 -42 -17 -24 -7 -60
-23 -80 -37 -23 -15 -39 -20 -43 -13 -10 15 22 46 65 65 l38 17 -20 45 c-15
34 -18 55 -13 86 10 61 13 116 4 116 -10 0 -93 -200 -118 -285 -35 -120 -51
-241 -51 -384 0 -75 3 -153 6 -173 l6 -37 29 15 c33 16 34 15 17 -21 -6 -14
-18 -25 -26 -25 -10 0 -13 -7 -8 -23 3 -12 6 -28 6 -34 0 -9 16 -13 44 -13 58
0 67 -23 36 -91 -21 -45 -22 -50 -7 -86 l15 -38 163 -2 c106 -1 165 -5 167
-12 3 -8 -46 -11 -152 -11 -161 0 -167 -2 -146 -41 10 -18 23 -19 236 -19 191
0 226 2 230 15 4 8 -12 57 -34 108 -35 80 -39 97 -32 132 5 27 8 32 9 15 3
-54 24 -103 66 -150 64 -72 77 -141 33 -178 -23 -18 -49 -20 -256 -21 l-193
-1 33 -47 c46 -65 193 -211 254 -253 28 -19 58 -47 67 -62 9 -15 28 -30 44
-33 15 -4 66 -24 113 -45 193 -86 362 -124 565 -124 207 0 368 36 565 124 47
21 98 41 113 45 17 3 35 18 45 34 9 16 38 43 64 61 90 61 278 262 278 296 0 5
-82 8 -193 6 -112 -2 -205 1 -220 7 -14 6 -34 22 -43 36 -14 22 -15 31 -4 71
9 29 23 53 42 67 41 31 66 75 77 138 l9 54 1 -46 c1 -33 -10 -71 -39 -139 -32
-72 -38 -95 -28 -101 7 -5 112 -9 234 -9 l221 0 11 25 c7 14 12 28 12 30 0 3
-72 5 -161 5 -104 0 -158 3 -154 10 4 6 71 10 170 10 l163 0 15 37 c13 34 13
40 -9 90 -31 69 -22 93 36 93 36 0 40 3 48 33 6 24 5 33 -5 35 -7 2 -20 17
-29 34 -15 29 -15 30 8 23 13 -4 28 -10 35 -12 16 -6 27 148 19 287 -6 121
-37 270 -79 381 -28 75 -104 229 -113 229 -4 0 -3 -47 1 -104 5 -85 4 -109 -9
-134 -9 -17 -16 -33 -16 -35 0 -2 17 -9 38 -15 43 -13 88 -55 77 -71 -4 -8
-15 -5 -31 8 -21 17 -47 27 -141 56 -8 3 -1 15 17 33 35 35 47 90 31 143 -6
21 -9 49 -5 63 3 14 1 48 -5 77 -7 30 -8 55 -3 58 17 11 33 52 27 70 -3 10
-14 26 -25 36 -14 13 -17 25 -13 46 8 40 -19 69 -64 69 -28 0 -33 3 -33 24 0
50 -70 77 -101 40 -22 -27 -69 -16 -147 36 -136 92 -313 164 -475 195 -73 14
-304 19 -382 8z m155 -179 c0 -19 4 -25 14 -21 42 16 100 28 113 23 9 -4 13
-14 10 -25 -4 -16 5 -20 65 -30 38 -6 86 -18 106 -27 l37 -15 -27 -24 -27 -23
23 -25 c13 -14 33 -28 44 -32 27 -8 28 -20 2 -38 -21 -14 -21 -15 -1 -48 30
-53 35 -79 18 -92 -10 -8 -19 -44 -26 -104 -14 -113 -16 -120 -52 -139 -16 -8
-29 -22 -29 -32 0 -32 -49 -121 -92 -168 -48 -53 -106 -84 -158 -84 -50 0
-129 40 -169 85 -35 40 -91 148 -91 176 0 9 -11 21 -25 27 -24 11 -33 26 -50
77 -14 43 -14 167 -1 200 15 34 33 51 44 41 3 -4 5 -66 3 -139 -3 -140 5 -166
43 -151 12 5 16 20 16 70 0 88 45 178 64 129 6 -17 42 -20 51 -4 4 6 19 1 38
-14 49 -37 92 -57 147 -67 55 -10 80 -5 80 16 0 9 12 14 35 14 l35 0 0 -64 c0
-45 4 -67 16 -76 30 -25 41 7 49 135 6 113 5 122 -15 147 -11 15 -36 33 -55
39 -35 13 -47 29 -22 29 7 0 22 6 32 14 19 14 19 15 2 34 -10 11 -17 28 -15
39 3 16 -4 18 -56 18 -49 -1 -64 3 -82 22 -13 13 -32 23 -44 23 -30 0 -82 -24
-104 -49 -11 -11 -24 -21 -29 -21 -6 0 -7 3 -4 7 12 11 -25 43 -50 43 -27 0
-83 -50 -83 -74 0 -10 -9 -16 -21 -16 -20 0 -76 -50 -111 -101 -12 -18 -19
-21 -28 -13 -9 9 -7 23 10 60 25 57 51 88 88 103 15 6 35 25 44 42 18 30 70
59 109 59 11 0 39 16 62 35 49 42 67 44 67 9z m900 -128 c0 -14 -7 -31 -15
-40 -8 -8 -15 -17 -15 -19 0 -4 70 1 103 7 27 6 20 -19 -14 -53 l-31 -31 40 0
c50 0 76 -25 48 -46 -10 -7 -23 -15 -27 -16 -5 -2 -2 -21 5 -43 7 -22 16 -89
20 -148 l6 -108 -29 -27 c-16 -15 -36 -51 -45 -82 -36 -116 -119 -202 -208
-216 -88 -15 -186 51 -238 161 -34 71 -36 87 -15 105 11 9 15 33 15 89 l0 77
46 32 c25 18 53 46 62 62 19 33 33 37 52 15 17 -20 104 -45 157 -45 61 0 93
-32 93 -95 0 -31 5 -47 15 -51 40 -16 58 55 34 139 -13 49 -53 73 -133 82 -81
9 -137 35 -171 79 -38 50 -59 47 -125 -22 -72 -76 -90 -127 -90 -254 0 -54 -4
-98 -8 -98 -5 0 -16 8 -25 18 -15 16 -15 27 -6 76 6 32 8 63 6 69 -2 7 -1 53
3 104 5 76 11 98 34 133 31 47 79 80 117 80 18 0 40 13 63 36 l37 37 92 -7
c74 -5 97 -3 113 9 27 20 34 19 34 -9z m-1489 -29 c71 -30 120 -68 164 -127
35 -47 35 -47 41 -188 6 -121 5 -144 -9 -166 -9 -13 -25 -27 -37 -31 -12 -4
-24 -21 -31 -48 -28 -104 -106 -201 -184 -227 -114 -38 -248 56 -294 206 -13
41 -30 73 -48 88 -20 17 -27 33 -27 60 0 39 15 63 33 52 6 -4 11 -21 11 -37 0
-37 27 -50 46 -24 8 10 14 35 14 54 0 21 10 50 26 73 l27 38 35 -32 c75 -65
202 -95 274 -65 32 13 38 13 49 1 6 -7 9 -21 5 -30 -8 -20 10 -54 29 -54 23 0
30 25 27 94 l-4 65 -35 7 c-20 4 -53 22 -74 41 -55 50 -95 25 -54 -34 36 -51
-48 -29 -99 26 -33 35 -56 40 -56 14 -1 -14 -6 -12 -25 10 -25 28 -28 38 -40
110 -7 46 -31 59 -54 29 -21 -27 -87 -55 -112 -47 -29 9 -19 26 30 54 38 21
41 26 36 51 -8 38 10 47 45 22 26 -19 29 -20 42 -5 39 47 158 57 249 20z m311
-561 c13 -19 9 -25 -19 -32 -46 -10 -87 -21 -106 -29 -16 -7 -17 -4 -11 21 10
45 42 65 89 58 22 -4 43 -12 47 -18z m669 1 c23 -19 45 -57 34 -57 -9 0 -118
30 -122 33 -9 10 11 36 30 40 12 2 24 5 27 5 3 1 17 -9 31 -21z m-1371 -77 c9
-17 7 -22 -12 -29 -135 -51 -194 -110 -216 -218 -6 -29 -13 -39 -31 -41 -23
-4 -24 -2 -18 47 12 104 90 201 191 240 65 25 73 25 86 1z m2067 -1 c105 -40
186 -142 195 -244 3 -34 0 -40 -18 -43 -19 -3 -24 4 -34 47 -25 106 -111 189
-212 206 -39 7 -43 11 -32 39 8 21 32 20 101 -5z m-1314 -22 l15 -24 -74 -17
c-130 -31 -219 -113 -243 -226 -6 -28 -25 -77 -41 -111 -17 -33 -29 -63 -26
-67 6 -9 100 -58 149 -76 38 -16 43 -22 28 -44 -6 -11 -17 -11 -52 -2 -58 15
-189 90 -189 108 0 8 18 52 40 99 22 47 40 92 40 99 0 37 45 125 84 167 50 51
101 81 179 102 70 19 72 18 90 -8z m602 -2 c107 -30 191 -111 221 -215 9 -30
34 -93 55 -140 22 -47 39 -92 39 -101 0 -26 -180 -118 -231 -119 -4 0 -9 9
-12 21 -5 17 1 23 31 35 48 18 142 67 148 76 3 4 -9 34 -26 67 -16 34 -35 83
-41 111 -24 111 -112 194 -238 225 -39 9 -71 19 -71 22 0 2 5 13 10 24 12 21
17 20 115 -6z m-525 -102 c0 -42 31 -93 73 -121 50 -33 126 -36 177 -6 41 23
80 77 80 109 0 12 10 35 22 50 19 24 22 25 31 10 15 -28 -2 -101 -36 -152 -80
-120 -269 -128 -354 -16 -30 39 -53 117 -46 156 5 25 6 25 29 10 15 -9 24 -25
24 -40z m-698 -71 c29 -55 129 -89 196 -67 25 7 25 8 11 -34 -10 -29 -14 -31
-64 -31 -110 0 -204 81 -220 190 l-6 45 33 -36 c18 -19 41 -50 50 -67z m1778
15 c-6 -22 -31 -58 -55 -82 -45 -45 -92 -65 -157 -65 -31 0 -37 4 -46 29 l-10
29 63 4 c70 4 127 38 148 87 6 14 22 39 36 54 26 28 26 28 29 6 2 -13 -1 -41
-8 -62z m-915 14 c17 0 47 6 68 13 48 17 51 -1 6 -38 -49 -41 -141 -28 -169
23 -15 29 -13 30 28 15 20 -7 51 -13 67 -13z m1083 -133 c7 -7 12 -36 12 -66
0 -45 -3 -53 -16 -48 -9 3 -22 6 -30 6 -10 0 -14 13 -14 48 0 43 12 72 30 72
3 0 11 -5 18 -12z m-2127 -15 c5 -78 4 -85 -19 -94 -13 -5 -25 -9 -28 -9 -7 0
-5 106 3 113 13 14 43 7 44 -10z m699 -52 c5 -11 10 -81 10 -155 0 -142 -3
-152 -42 -122 -16 11 -18 31 -18 139 0 69 3 132 6 141 8 22 31 20 44 -3z m738
-127 l3 -141 -26 -17 -25 -16 0 153 c0 85 3 157 7 161 4 4 14 5 23 4 12 -3 15
-26 18 -144z m-1323 35 c63 -17 99 -51 123 -114 26 -66 28 -108 7 -125 -20
-16 -45 -6 -45 19 0 11 -9 45 -21 76 -15 40 -25 55 -40 55 -23 0 -24 -22 -4
-80 19 -53 12 -80 -19 -80 -30 0 -37 10 -66 88 -17 48 -27 62 -42 62 -17 0
-19 -5 -14 -32 19 -103 19 -107 1 -114 -28 -11 -46 8 -69 71 -17 49 -26 60
-43 59 -20 0 -21 1 -8 25 20 40 50 62 107 82 62 22 80 23 133 8z m2015 -19
c21 -11 50 -34 65 -52 l28 -33 -23 -5 c-17 -4 -28 -20 -44 -64 -25 -70 -47
-89 -73 -64 -16 16 -16 21 -2 65 18 55 15 73 -11 73 -13 0 -23 -14 -35 -52
-23 -70 -41 -98 -65 -98 -34 0 -41 32 -19 89 21 56 19 71 -11 71 -15 0 -24
-17 -43 -77 -26 -81 -37 -94 -63 -72 -21 18 -13 75 20 142 25 51 58 80 114 98
38 12 118 1 162 -21z m-1602 -160 c35 -11 79 -32 98 -47 l36 -27 -35 -18 c-34
-17 -67 -54 -80 -90 -5 -16 -10 -16 -34 -6 -114 50 -155 122 -122 216 l11 31
31 -20 c18 -11 60 -28 95 -39z m1177 -30 c0 -59 -3 -72 -25 -95 -27 -29 -90
-65 -114 -65 -8 0 -17 9 -21 19 -6 20 -72 85 -96 94 -25 9 42 55 121 82 41 14
84 32 94 40 30 23 41 3 41 -75z m-800 -7 c39 -20 85 -63 85 -80 0 -10 -11 -6
-33 11 -46 36 -110 56 -173 56 -57 0 -73 15 -26 26 15 3 32 7 37 9 17 6 78 -7
110 -22z m439 11 c30 -12 16 -24 -27 -24 -64 0 -142 -27 -182 -61 -24 -21 -35
-26 -35 -16 0 25 42 69 84 88 40 18 128 25 160 13z m-1264 -115 c0 -35 -12
-49 -42 -49 -32 0 -33 8 -8 76 10 26 11 26 30 9 11 -10 20 -26 20 -36z m1980
3 c14 -51 14 -52 -19 -52 -25 0 -31 5 -36 31 -5 22 -2 36 10 49 22 25 32 19
45 -28z m-2098 17 c15 -4 15 -7 3 -36 -12 -27 -20 -33 -45 -33 -34 0 -36 6
-15 57 11 26 18 33 28 25 6 -5 20 -11 29 -13z m929 -10 c42 -21 96 -80 105
-113 11 -45 1 -71 -26 -71 -22 0 -27 7 -42 64 -20 74 -31 89 -51 73 -12 -10
-11 -22 1 -81 17 -79 12 -101 -22 -101 -31 0 -34 5 -47 77 -15 84 -18 93 -39
93 -26 0 -30 -21 -15 -86 15 -64 7 -94 -25 -94 -24 0 -30 10 -44 74 -14 63
-39 71 -44 14 -4 -45 -24 -50 -48 -13 -20 31 -13 81 17 119 56 72 187 93 280
45z m536 0 c70 -34 106 -124 69 -174 -21 -29 -47 -13 -40 24 5 23 2 32 -10 37
-23 9 -26 4 -39 -57 -14 -60 -38 -82 -63 -57 -15 14 -15 23 -3 82 9 49 10 69
2 77 -22 22 -40 1 -53 -63 -15 -77 -25 -98 -49 -98 -37 0 -43 23 -24 99 13 55
14 74 5 83 -18 18 -38 -8 -54 -71 -16 -62 -37 -82 -63 -61 -34 28 9 124 76
166 76 47 163 52 246 13z m751 -2 c18 -49 15 -57 -18 -57 -24 0 -33 6 -40 26
-14 35 -13 38 13 50 32 17 32 17 45 -19z m-1998 14 c0 -5 3 -23 6 -40 6 -29 5
-31 -25 -31 -28 0 -31 3 -31 30 0 17 7 33 18 39 21 13 32 14 32 2z m108 -33
c11 -27 10 -28 -17 -28 -40 0 -60 54 -23 63 20 4 25 1 40 -35z m1653 32 c11
-6 19 -21 19 -35 0 -22 -4 -25 -35 -25 -19 0 -35 2 -35 4 0 10 23 66 27 66 2
0 13 -5 24 -10z m-85 -16 c-3 -9 -6 -22 -6 -30 0 -9 -11 -14 -30 -14 -34 0
-34 0 -18 35 13 29 65 38 54 9z m-1538 -91 c2 -9 -7 -13 -27 -13 -21 0 -31 5
-31 16 0 19 51 16 58 -3z m1510 5 c-3 -7 -20 -14 -38 -16 -30 -3 -32 -2 -21
12 16 19 65 22 59 4z m-1248 -148 c0 -3 -27 -54 -60 -114 -33 -60 -57 -112
-55 -116 6 -9 1139 -10 1154 -1 7 5 -10 46 -50 119 -53 98 -60 114 -47 125 9
7 20 21 25 31 9 16 23 -3 97 -128 71 -119 85 -150 75 -162 -10 -12 -110 -14
-669 -14 -362 0 -665 3 -674 6 -9 3 -16 11 -16 16 0 5 39 75 87 154 l86 145
23 -28 c13 -15 23 -30 24 -33z m480 30 c0 -5 -4 -10 -10 -10 -5 0 -10 5 -10
10 0 6 5 10 10 10 6 0 10 -4 10 -10z m-393 -60 c20 -31 6 -50 -38 -50 -44 0
-44 0 -24 40 18 34 45 39 62 10z m363 1 c0 -39 -11 -51 -47 -51 -32 0 -35 2
-29 23 3 12 6 28 6 35 0 7 14 12 35 12 28 0 35 -4 35 -19z m100 7 c0 -7 3 -23
6 -35 6 -21 3 -23 -30 -23 -29 0 -36 4 -36 19 0 11 -3 26 -6 35 -5 13 1 16 30
16 22 0 36 -5 36 -12z m93 -23 c48 -20 47 -35 -3 -35 -25 0 -40 5 -40 13 0 6
-3 23 -6 37 -4 16 -2 20 3 13 5 -7 25 -19 46 -28z m262 5 c20 -40 20 -40 -24
-40 -44 0 -58 19 -38 50 17 29 44 24 62 -10z m-572 -12 c-5 -25 -10 -28 -44
-28 -45 0 -51 16 -11 30 15 6 34 14 42 19 19 11 19 11 13 -21z m-122 0 c-6
-18 -17 -24 -46 -26 -34 -3 -37 -2 -26 12 8 9 22 16 32 16 10 0 21 5 24 10 12
19 24 10 16 -12z m524 12 c3 -5 14 -10 24 -10 10 0 24 -7 31 -15 11 -13 7 -15
-23 -15 -33 0 -57 19 -57 44 0 10 18 7 25 -4z m-692 -114 c-11 -24 -24 -36
-45 -40 -44 -9 -50 0 -27 39 17 29 27 35 55 35 l34 0 -17 -34z m117 -6 c-17
-33 -26 -40 -50 -40 -35 0 -35 -1 -13 45 14 30 22 35 50 35 l33 0 -20 -40z
m144 13 c-10 -43 -23 -53 -66 -53 -33 0 -39 3 -34 16 3 9 9 27 12 40 5 21 12
24 50 24 43 0 44 -1 38 -27z m134 -10 c-3 -38 -3 -38 -48 -38 -44 0 -45 1 -41
30 4 42 7 45 52 45 l40 0 -3 -37z m143 3 c11 -40 5 -46 -47 -46 l-44 0 0 41 0
40 42 -3 c37 -3 43 -7 49 -32z m136 0 c13 -42 10 -46 -34 -46 -29 0 -36 5 -49
35 -7 19 -14 37 -14 40 0 3 19 5 43 5 41 0 44 -2 54 -34z m116 -1 c18 -38 10
-50 -27 -41 -12 3 -29 21 -39 41 l-17 35 33 0 c28 0 36 -5 50 -35z m122 5 c20
-39 19 -50 -6 -50 -33 0 -56 17 -67 50 -11 30 -10 30 23 30 28 0 37 -6 50 -30z
m195 -157 c0 -55 24 -53 -681 -53 -429 0 -657 4 -670 10 -11 7 -19 21 -19 38
l0 27 685 0 685 0 0 -22z"/>
</g>
</svg>
