<?xml version="1.0" standalone="no"?>
<!DOCTYPE svg PUBLIC "-//W3C//DTD SVG 20010904//EN"
 "http://www.w3.org/TR/2001/REC-SVG-20010904/DTD/svg10.dtd">
<svg version="1.0" xmlns="http://www.w3.org/2000/svg"
 width="297.000000pt" height="297.000000pt" viewBox="0 0 297.000000 297.000000"
 preserveAspectRatio="xMidYMid meet">

<g transform="translate(0.000000,297.000000) scale(0.100000,-0.100000)"
fill="#000000" stroke="none">
<path d="M1419 2817 c-60 -22 -96 -54 -123 -109 -30 -59 -34 -138 -12 -201 13
-36 13 -38 -13 -51 -47 -25 -79 -69 -145 -203 -81 -161 -84 -189 -27 -243 l39
-38 -34 -33 c-18 -18 -35 -31 -37 -28 -2 2 -14 20 -27 39 -13 19 -55 77 -93
128 l-69 92 -2 95 c-1 63 3 100 11 111 16 22 17 58 2 48 -7 -4 -9 0 -5 14 4
11 4 33 0 49 l-7 28 -12 -29 -12 -29 -7 44 -7 44 -17 -30 -17 -30 -3 28 -3 28
-20 -23 -20 -23 6 31 6 31 -73 -1 c-89 -1 -138 -23 -170 -74 -21 -34 -22 -48
-21 -160 1 -71 7 -129 13 -137 8 -10 -2 -20 -43 -43 -70 -39 -141 -110 -156
-154 -9 -28 -22 -40 -71 -63 -89 -43 -96 -53 -80 -119 19 -81 21 -82 70 -63
26 10 40 12 38 5 -3 -7 -18 -16 -35 -22 -18 -6 -34 -14 -38 -17 -8 -9 15 -102
29 -114 11 -10 12 -22 19 -150 4 -58 23 -112 54 -147 21 -23 8 -41 -19 -27
-12 6 -40 9 -64 6 -95 -10 -143 -87 -125 -199 14 -88 27 -150 35 -170 17 -38
113 -54 173 -29 41 17 41 17 70 179 4 24 9 32 20 28 54 -21 64 -19 107 23 l42
41 108 -40 108 -41 51 32 c36 22 58 29 77 25 21 -4 34 2 59 28 17 17 31 35 31
39 0 4 -12 12 -27 18 l-28 11 23 11 c16 7 22 19 22 42 0 26 -6 34 -35 48 -31
15 -35 21 -35 57 0 27 4 40 14 40 20 0 27 27 10 40 -11 10 -19 9 -39 -4 -21
-14 -25 -24 -25 -62 0 -33 -4 -46 -17 -51 -39 -15 -169 -112 -165 -124 1 -5
-5 -12 -13 -15 -8 -4 -15 -10 -15 -15 0 -4 7 -5 17 -2 12 5 14 3 8 -7 -5 -9
-4 -11 4 -6 6 4 9 12 6 17 -9 13 26 10 54 -5 l23 -13 -23 -6 c-13 -3 -21 -9
-17 -12 3 -3 17 -1 31 6 17 8 30 8 43 1 16 -9 14 -11 -12 -25 -27 -14 -34 -13
-117 20 l-88 36 95 97 c53 53 96 104 96 112 0 27 -13 33 -148 68 l-42 11 27
23 c24 19 44 24 128 29 99 6 101 6 182 -30 l82 -36 3 -203 c3 -194 4 -203 25
-226 28 -30 29 -55 3 -76 -12 -11 -33 -65 -56 -146 -27 -95 -54 -162 -103
-254 -59 -113 -69 -126 -93 -127 -33 -1 -26 7 -130 -140 -104 -149 -102 -145
-86 -144 7 0 54 58 103 129 80 115 93 130 119 130 l28 0 -24 -32 c-67 -89
-158 -216 -158 -222 0 -3 67 -6 150 -6 l150 0 36 55 c25 37 35 62 32 78 -7 36
12 53 65 59 34 4 60 15 87 37 32 26 48 31 90 31 l51 0 -7 -56 c-5 -41 -4 -55
5 -50 6 4 11 19 11 34 0 55 10 72 42 72 l30 0 -6 -52 c-18 -166 -19 -208 -3
-208 18 0 27 48 27 152 0 96 5 108 41 108 l29 0 0 -81 c0 -51 4 -78 10 -74 6
3 10 40 10 81 l0 74 30 0 30 0 1 -72 c0 -40 4 -91 8 -113 7 -31 9 -15 10 73 1
111 1 112 25 112 26 0 25 3 42 -172 3 -38 11 -68 16 -68 6 0 8 20 4 53 -20
184 -20 187 3 187 12 0 24 -7 28 -15 7 -20 55 -45 86 -45 35 0 53 -24 39 -55
-9 -20 -7 -32 14 -72 40 -76 35 -74 187 -71 l137 3 -75 118 c-41 66 -75 123
-75 128 0 5 11 9 24 9 19 0 36 -22 100 -130 43 -72 82 -130 88 -130 15 0 9 10
-80 157 -61 102 -78 137 -74 158 7 37 -106 474 -130 501 -24 27 -23 38 7 70
24 26 25 29 27 226 l3 199 83 33 c75 30 87 33 130 24 63 -13 71 -24 28 -38
-32 -10 -36 -16 -36 -44 0 -31 4 -35 59 -60 l59 -26 46 20 c57 24 65 42 35 74
-24 25 -38 20 -52 -17 -6 -17 -7 -17 -25 0 -13 13 -14 19 -5 21 20 5 15 19 -9
26 -17 4 -20 8 -11 17 9 9 18 8 36 -4 14 -9 34 -13 45 -10 16 4 50 -19 139
-92 160 -133 159 -131 63 -90 -47 21 -94 39 -106 42 -21 5 -227 -79 -254 -103
-12 -12 -12 -16 0 -28 22 -22 446 -245 515 -271 33 -12 74 -29 92 -36 26 -10
34 -10 47 0 16 14 22 52 9 65 -4 4 -7 19 -8 34 0 22 -12 34 -67 68 l-67 41 33
16 c32 15 35 14 75 -9 50 -30 55 -14 6 18 -19 13 -35 29 -35 35 0 13 -11 21
-92 67 l-47 26 28 43 c37 54 44 78 48 157 5 97 8 123 21 146 6 12 14 40 18 63
6 40 6 41 -32 57 -22 9 -34 19 -27 21 7 2 21 0 32 -6 32 -18 39 -13 56 39 27
82 20 99 -57 139 -48 26 -70 44 -77 63 -15 43 -96 123 -155 154 -53 28 -53 28
-41 58 7 16 10 41 6 55 -4 14 -5 54 -3 88 4 61 4 63 48 90 24 15 44 32 44 36
0 9 -10 4 -53 -26 -26 -17 -60 -18 -55 0 1 4 -18 29 -44 55 -52 53 -108 74
-171 64 -65 -11 -142 -58 -135 -82 1 -5 -6 -24 -16 -43 -15 -27 -17 -46 -11
-97 4 -35 11 -64 16 -64 5 0 9 -26 9 -58 0 -47 -4 -63 -21 -78 -12 -10 -55
-65 -96 -121 -42 -57 -77 -103 -80 -103 -2 0 -16 15 -33 33 l-29 32 36 37 c52
53 48 85 -27 244 -49 104 -71 138 -112 177 -47 44 -50 50 -47 90 8 121 3 154
-27 204 -50 80 -154 120 -235 90z m151 -32 c38 -20 78 -73 86 -116 6 -31 3
-29 -21 18 -27 54 -66 85 -120 97 l-30 7 25 -21 c24 -19 24 -20 4 -20 -35 0
-87 -22 -74 -30 8 -5 -4 -17 -36 -36 -34 -20 -44 -30 -31 -32 20 -4 23 -22 3
-22 -7 0 -30 -11 -50 -25 l-36 -24 0 36 c0 75 63 160 137 183 36 12 105 5 143
-15z m-1 -185 c38 -36 41 -43 35 -75 -9 -50 -43 -96 -87 -120 l-37 -20 -37 20
c-62 33 -113 155 -65 155 24 0 114 44 131 63 7 10 14 17 16 17 1 0 21 -18 44
-40z m-864 -70 c-11 -4 -36 -14 -55 -22 l-35 -13 35 -6 35 -5 -45 -13 c-25 -7
-60 -21 -77 -31 -36 -21 -41 -14 -18 30 22 42 76 68 145 68 28 1 31 -1 15 -8z
m1606 0 c20 -6 42 -17 49 -25 11 -13 8 -13 -23 0 -40 16 -123 20 -131 6 -3 -5
10 -12 29 -15 42 -8 47 -26 8 -27 -16 0 -37 -4 -48 -9 -20 -8 -18 -11 25 -23
9 -2 -6 -13 -35 -27 -27 -13 -54 -26 -59 -28 -4 -2 -5 6 -1 18 11 33 -13 15
-32 -24 l-14 -31 5 40 c4 30 15 49 46 78 22 21 38 42 35 47 -6 10 46 28 85 29
14 1 41 -4 61 -9z m-633 -84 c15 -8 39 -27 54 -43 38 -41 148 -269 147 -307
l0 -31 -13 35 c-22 58 -117 242 -143 276 -13 18 -37 37 -53 44 -17 7 -30 19
-30 26 0 17 4 17 38 0z m-343 -5 c3 -6 -10 -17 -30 -27 -49 -23 -78 -61 -136
-175 -46 -92 -60 -151 -41 -163 22 -13 162 -53 162 -46 0 5 -29 18 -65 30 -36
12 -67 26 -71 31 -12 21 32 21 95 1 84 -27 85 -27 100 2 19 34 82 66 130 66
51 0 90 -19 125 -60 l26 -31 59 17 c33 9 65 14 73 11 7 -2 -16 -13 -52 -24
l-65 -19 -5 -62 c-3 -35 -1 -62 4 -62 6 0 43 9 84 21 l75 21 40 -40 c34 -35
39 -43 28 -56 -8 -9 -29 -16 -49 -16 -25 0 -61 -16 -128 -57 -52 -32 -94 -61
-94 -66 0 -4 15 -16 33 -27 l32 -20 -28 0 c-16 0 -42 9 -58 21 -30 21 -54 17
-45 -7 4 -11 -7 -14 -54 -14 -47 0 -58 3 -54 14 9 24 -15 28 -42 7 -15 -12
-38 -21 -53 -21 l-26 0 30 24 c17 13 28 26 25 29 -3 2 -49 32 -104 65 -80 49
-103 59 -121 52 -23 -9 -45 4 -45 24 1 6 16 28 34 49 l34 38 73 -21 c96 -26
99 -26 90 8 -7 27 -30 37 -211 90 -45 13 -38 54 34 199 46 91 77 141 106 167
39 35 73 46 85 27z m150 -91 c15 0 35 5 46 10 27 15 25 -5 -3 -24 -40 -28 -96
-16 -118 25 -11 20 -11 20 19 5 16 -9 42 -16 56 -16z m710 17 c-11 -7 -33 -27
-50 -44 -41 -43 -64 -44 -34 -2 12 17 36 37 53 45 38 16 58 17 31 1z m-1470
-54 c29 -3 68 -1 86 6 18 6 35 8 38 5 8 -8 6 -130 -2 -175 -10 -51 -40 -79
-85 -79 -50 1 -115 32 -143 69 -12 17 -29 31 -38 31 -25 0 -51 32 -51 62 0 35
14 36 36 3 34 -52 61 -15 52 70 l-5 44 29 -15 c17 -9 54 -18 83 -21z m1625
-45 c0 -24 5 -50 10 -58 9 -13 15 -10 39 18 34 40 41 40 41 2 0 -29 -29 -70
-50 -70 -6 0 -29 -20 -53 -44 -28 -29 -56 -48 -85 -56 -88 -23 -131 20 -135
136 l-2 68 47 7 c26 4 52 10 58 14 9 6 9 1 0 -15 -11 -20 -10 -21 12 -15 12 4
41 18 63 31 22 13 43 23 48 24 4 0 7 -19 7 -42z m-1058 -121 c3 -47 3 -48 -22
-42 -14 4 -27 8 -29 10 -2 2 7 30 20 61 25 59 26 58 31 -29z m416 20 l21 -48
-25 -9 c-14 -6 -27 -10 -30 -10 -2 0 -4 30 -4 67 0 74 7 74 38 0z m-1101 -67
c39 -36 66 -52 94 -56 32 -5 37 -9 28 -20 -17 -20 -72 -17 -101 6 -14 10 -31
33 -38 50 -7 16 -18 30 -24 30 -15 0 -108 -49 -121 -64 -6 -6 -24 -18 -40 -28
-19 -10 -35 -31 -44 -56 -14 -38 -13 -45 18 -142 19 -55 31 -103 28 -106 -3
-3 -19 30 -35 73 -35 91 -32 98 -62 -120 -12 -81 -18 -158 -15 -170 6 -21 6
-21 -9 -3 -22 28 -20 69 15 283 36 222 48 250 142 316 59 42 81 54 101 56 4 1
33 -22 63 -49z m328 -37 c40 -55 53 -79 45 -87 -8 -8 -14 -6 -22 7 -5 10 -30
43 -54 73 -42 51 -55 84 -35 84 5 0 35 -35 66 -77z m1179 5 c4 -29 9 -64 12
-78 4 -22 3 -22 -10 5 -9 17 -15 44 -16 60 l-1 30 -22 -25 c-12 -14 -36 -44
-54 -65 -26 -34 -33 -37 -38 -23 -5 12 4 32 26 60 49 64 81 98 89 93 4 -3 10
-28 14 -57z m263 -10 c-7 -18 -28 -41 -46 -52 -27 -16 -36 -17 -59 -6 l-27 12
50 22 c28 13 56 30 64 39 22 28 32 19 18 -15z m138 -71 c-22 -22 -39 -53 -50
-93 -9 -32 -18 -65 -20 -71 -3 -7 -12 -13 -21 -13 -12 0 -15 6 -10 25 18 70
50 137 77 160 44 37 63 31 24 -8z m-1453 -102 c30 -38 67 -76 83 -83 75 -32
80 -37 83 -75 4 -43 -10 -49 -26 -12 -6 14 -17 25 -24 25 -9 0 -9 -3 0 -12 17
-17 15 -38 -3 -38 -8 0 -15 4 -15 10 0 12 -40 33 -48 25 -4 -4 2 -13 12 -21
17 -12 17 -14 3 -14 -18 0 -62 25 -92 53 -11 10 -44 36 -73 58 -29 22 -56 47
-59 56 -4 10 11 30 43 59 27 24 52 42 56 41 3 -1 30 -33 60 -72z m962 26 c27
-27 46 -54 42 -59 -3 -6 -34 -29 -67 -51 -34 -22 -69 -51 -80 -65 -21 -27 -72
-51 -91 -43 -8 4 -7 6 5 6 10 1 17 9 17 21 0 18 -3 19 -21 10 -11 -6 -23 -18
-26 -26 -5 -15 -33 -20 -33 -6 0 4 7 18 16 30 9 13 11 22 4 22 -6 0 -19 -13
-28 -30 -21 -36 -32 -38 -32 -6 0 43 12 57 65 81 40 17 65 39 109 94 31 39 60
71 64 71 4 0 29 -22 56 -49z m-1719 9 c-9 -15 -125 -71 -125 -60 0 5 26 23 58
39 60 32 77 37 67 21z m2413 -14 c40 -20 98 -68 67 -55 -35 15 -115 60 -120
69 -9 15 1 12 53 -14z m-2134 -64 c4 -12 3 -22 -2 -22 -5 0 -12 12 -16 28 -3
15 -8 38 -11 52 -5 20 -3 19 8 -6 8 -17 18 -40 21 -52z m1620 -39 c29 -104 29
-103 17 -103 -7 0 -62 194 -61 217 1 20 21 -31 44 -114z m-1410 6 c-10 -46
-19 -78 -22 -71 -4 14 28 165 35 158 3 -2 -3 -42 -13 -87z m1885 -61 c27 -176
27 -219 0 -249 -19 -23 -20 -23 -10 -2 15 31 13 78 -8 232 -16 112 -18 172 -6
159 2 -2 12 -65 24 -140z m-494 -46 c-15 -15 -150 63 -150 86 0 7 25 30 55 51
l55 40 22 -87 c12 -48 20 -88 18 -90z m-1309 138 c6 0 23 -13 38 -29 l27 -28
-42 -32 c-46 -34 -99 -42 -99 -15 0 14 16 92 26 123 4 11 8 11 22 -3 10 -9 23
-16 28 -16z m369 -44 c47 -30 86 -57 86 -61 1 -9 -52 -45 -64 -45 -5 0 -5 5
-2 10 3 6 0 10 -7 10 -7 1 -2 10 12 22 24 20 24 20 3 14 -19 -6 -22 -4 -16 10
4 12 3 15 -5 10 -7 -4 -12 -2 -12 4 0 6 -25 22 -55 36 -30 14 -53 30 -50 35
10 15 21 11 110 -45z m580 45 c3 -5 -20 -21 -50 -35 -30 -14 -55 -30 -55 -36
0 -6 -5 -8 -12 -4 -8 5 -9 2 -5 -10 5 -14 3 -17 -8 -12 -19 7 -47 -3 -39 -15
3 -5 10 -9 15 -9 6 0 7 5 4 10 -10 16 11 12 25 -5 11 -13 10 -15 -6 -9 -18 5
-18 5 0 -10 29 -23 3 -20 -39 5 -20 12 -33 25 -28 29 13 13 177 110 185 110 4
0 9 -4 13 -9z m778 -76 c-8 -25 -17 -45 -20 -45 -4 0 2 25 18 68 16 42 18 22
2 -23z m-2001 -7 c29 -53 45 -57 254 -57 114 -1 155 -4 170 -15 17 -13 15 -14
-26 -11 -32 3 -37 2 -16 -3 42 -10 44 -29 4 -26 -26 3 -28 2 -10 -4 29 -9 25
-28 -5 -24 -30 4 -29 -6 2 -18 14 -5 25 -17 25 -25 0 -13 -4 -14 -20 -5 -26
14 -168 17 -295 7 -87 -7 -104 -6 -135 10 -34 18 -110 114 -110 139 0 11 111
73 132 74 3 0 17 -19 30 -42z m1923 -14 c14 -9 25 -20 25 -26 0 -5 -23 -43
-51 -84 -41 -61 -60 -80 -97 -96 l-46 -21 -105 29 c-106 28 -218 36 -271 20
-23 -7 -22 -4 10 25 34 31 28 35 -22 14 -30 -12 -21 23 10 39 15 8 21 15 14
16 -7 0 -21 -4 -31 -9 -13 -7 -22 -5 -34 9 -15 18 -15 20 6 35 29 20 89 19
205 -4 54 -11 117 -21 142 -23 43 -3 45 -2 68 42 14 25 31 55 38 67 l14 23 50
-20 c28 -11 62 -27 75 -36z m-616 -98 c22 -23 22 -27 21 -296 0 -150 -5 -280
-10 -290 -21 -40 -130 -54 -136 -17 -2 13 5 17 29 18 18 1 35 1 40 0 4 0 7 4
7 9 0 6 -135 10 -386 10 -254 0 -383 -3 -379 -10 3 -5 22 -10 41 -10 28 0 34
-4 34 -21 0 -20 -4 -21 -52 -17 -40 4 -57 11 -75 32 -23 27 -23 29 -23 297 l0
270 25 24 24 25 409 0 409 0 22 -24z m-920 -112 c4 3 8 -1 8 -9 0 -18 -1 -18
-37 0 -37 19 -39 28 -4 15 14 -6 29 -8 33 -6z m1051 11 c0 -8 -82 -47 -87 -41
-3 3 14 15 38 26 49 22 49 22 49 15z m195 -74 c3 -5 0 -13 -6 -17 -7 -4 -1
-12 17 -20 19 -8 23 -13 12 -13 -10 -1 -33 7 -53 16 -35 17 -35 17 -13 30 28
15 35 16 43 4z m-1595 -21 c110 -30 110 -30 110 -42 0 -5 -49 -62 -108 -126
-60 -65 -124 -134 -143 -155 -32 -36 -37 -38 -72 -32 -32 6 -37 11 -37 36 0
15 -4 31 -10 34 -5 3 -10 12 -10 20 0 11 11 10 57 -6 l57 -19 93 92 c51 51 93
95 93 99 0 3 -34 14 -75 24 l-75 19 -85 -84 c-75 -75 -86 -82 -101 -69 -15 12
-6 24 97 121 63 59 119 108 124 108 6 0 44 -9 85 -20z m259 -22 c-13 -13 -26
-19 -27 -15 -6 12 19 37 36 37 11 0 9 -6 -9 -22z m-22 -70 c-3 -8 -6 -5 -6 6
-1 11 2 17 5 13 3 -3 4 -12 1 -19z m0 -65 c-3 -2 -16 2 -31 8 l-27 13 23 12
c20 11 24 10 31 -8 4 -12 6 -23 4 -25z m1758 -58 c33 -15 76 -34 95 -42 l35
-16 -113 -53 c-73 -35 -115 -60 -119 -72 -4 -16 -26 -7 -174 71 -93 50 -169
93 -169 97 0 4 52 30 117 58 l116 50 76 -33 c42 -18 103 -45 136 -60z m-1686
69 c6 -6 -1 -11 -26 -18 -19 -6 -23 -4 -23 14 0 18 4 20 23 14 12 -3 24 -8 26
-10z m-139 -24 c0 -5 -7 -7 -15 -4 -8 4 -12 10 -9 15 6 11 24 2 24 -11z m56
-8 c-7 -7 -46 9 -46 18 0 5 11 4 25 -2 14 -6 23 -13 21 -16z m-76 -12 c0 -5
-9 -12 -20 -15 -11 -3 -20 -10 -20 -15 0 -5 11 -4 25 2 14 6 25 15 25 20 0 4
24 -1 53 -13 125 -50 122 -47 79 -77 l-27 -20 -103 42 c-56 22 -102 43 -102
46 0 3 15 15 33 26 30 20 57 22 57 4z m-515 0 c25 0 75 -51 75 -76 0 -36 -52
-64 -118 -64 -46 0 -58 4 -83 30 -29 28 -29 30 -14 60 8 16 17 30 18 30 1 0
20 7 42 15 22 8 46 12 53 10 8 -3 20 -5 27 -5z m97 -145 c-18 -39 -69 -65
-130 -65 -68 0 -119 22 -132 55 -15 40 -10 54 6 17 19 -44 70 -66 142 -60 29
3 58 11 65 18 10 10 7 11 -15 6 -19 -4 -28 -2 -28 6 0 8 -5 6 -11 -4 -13 -23
-55 -23 -63 -1 -6 14 -9 15 -15 4 -11 -18 -47 1 -54 28 -4 18 -3 19 17 6 40
-26 99 -29 150 -7 25 12 46 17 46 11 0 -5 -4 -9 -10 -9 -5 0 -10 -7 -10 -16 0
-30 25 -7 28 26 3 24 6 30 14 22 8 -8 8 -18 0 -37z m2435 -98 c17 -15 20 -24
12 -33 -7 -8 -7 -14 1 -19 5 -3 10 -13 10 -22 0 -20 -32 -14 -133 25 -109 42
-130 57 -117 83 6 11 25 29 43 39 l31 19 66 -36 c36 -20 75 -45 87 -56z
m-1497 23 c0 -18 -7 -20 -60 -20 -53 0 -60 2 -60 20 0 18 7 20 60 20 53 0 60
-2 60 -20z m300 0 c0 -20 -5 -20 -132 -18 -116 3 -131 5 -134 21 -2 15 10 17
132 17 128 0 134 -1 134 -20z m160 0 c0 -18 -7 -20 -60 -20 -53 0 -60 2 -60
20 0 18 7 20 60 20 53 0 60 -2 60 -20z m-443 -42 c-3 -8 -6 -5 -6 6 -1 11 2
17 5 13 3 -3 4 -12 1 -19z m308 13 c3 -5 1 -12 -5 -16 -5 -3 -10 1 -10 9 0 18
6 21 15 7z m-1372 -8 c-7 -2 -19 -2 -25 0 -7 3 -2 5 12 5 14 0 19 -2 13 -5z
m954 -9 c-3 -3 -12 -4 -19 -1 -8 3 -5 6 6 6 11 1 17 -2 13 -5z m70 0 c-3 -3
-12 -4 -19 -1 -8 3 -5 6 6 6 11 1 17 -2 13 -5z m323 -4 c0 -6 -50 -10 -130
-10 -80 0 -130 4 -130 10 0 6 50 10 130 10 80 0 130 -4 130 -10z m93 3 c-7 -2
-19 -2 -25 0 -7 3 -2 5 12 5 14 0 19 -2 13 -5z m-140 -30 c-46 -2 -120 -2
-165 0 -46 1 -9 3 82 3 91 0 128 -2 83 -3z m-408 -42 l90 -29 -92 -1 c-83 -1
-92 -3 -97 -21 -3 -11 -9 -29 -12 -40 -5 -18 -1 -20 50 -20 53 0 56 -1 56 -26
0 -17 -4 -23 -12 -18 -20 12 -121 14 -135 2 -8 -6 -15 -9 -18 -7 -4 5 38 159
49 177 10 17 19 15 121 -17z m751 21 c7 -4 37 -106 68 -226 50 -195 55 -221
42 -235 -18 -17 -14 -28 -57 132 -40 148 -50 162 -120 162 -43 0 -54 4 -57 18
-3 15 5 17 58 17 57 0 61 2 56 20 -3 11 -9 29 -12 40 -5 18 -14 20 -87 21
l-82 0 79 25 c44 13 81 26 84 29 7 7 15 6 28 -3z m-626 -87 c0 -22 -4 -25 -34
-25 -29 0 -33 3 -29 19 4 17 13 22 56 30 4 0 7 -10 7 -24z m90 -1 c0 -21 -5
-24 -35 -24 -27 0 -35 4 -35 18 0 25 5 29 40 30 25 1 30 -3 30 -24z m90 1 c0
-22 -4 -25 -35 -25 -28 0 -35 4 -35 19 0 21 13 29 48 30 17 1 22 -5 22 -24z
m88 -3 c3 -19 -1 -22 -32 -22 -28 0 -36 4 -36 18 0 25 6 29 38 27 20 -1 28 -7
30 -23z m90 1 c3 -20 -1 -23 -32 -23 -28 0 -36 4 -36 18 0 25 4 28 37 27 21 0
29 -5 31 -22z m84 2 c5 -23 2 -25 -28 -25 -30 0 -34 3 -34 25 0 21 5 25 29 25
23 0 30 -5 33 -25z m-614 -7 c-3 -23 -48 -41 -48 -20 0 24 14 42 32 42 14 0
19 -6 16 -22z m90 5 c-2 -12 -14 -19 -36 -21 -27 -3 -32 0 -32 17 0 17 6 21
36 21 28 0 35 -3 32 -17z m610 -6 c3 -15 -2 -18 -30 -15 -22 2 -34 9 -36 21
-3 15 2 18 30 15 22 -2 34 -9 36 -21z m66 7 c11 -28 7 -35 -16 -32 -30 4 -39
48 -10 48 11 0 23 -7 26 -16z m-634 -63 c0 -26 -13 -33 -45 -25 -16 4 -25 13
-25 25 0 15 7 19 35 19 28 0 35 -4 35 -19z m80 -6 c0 -21 -5 -25 -30 -25 -25
0 -30 4 -30 25 0 21 5 25 30 25 25 0 30 -4 30 -25z m90 0 c0 -22 -4 -25 -35
-25 -31 0 -35 3 -35 25 0 22 4 25 35 25 31 0 35 -3 35 -25z m83 13 c8 -24 -5
-38 -34 -38 -24 0 -29 4 -29 25 0 21 5 25 29 25 16 0 31 -6 34 -12z m87 -13
c0 -22 -4 -25 -34 -25 -30 0 -33 2 -28 25 3 20 10 25 33 25 24 0 29 -4 29 -25z
m88 3 c-2 -18 -11 -24 -35 -26 -30 -3 -33 -1 -33 22 0 23 4 26 36 26 31 0 35
-3 32 -22z m92 5 c0 -13 -9 -18 -35 -20 -29 -1 -35 2 -35 18 0 15 7 19 35 19
27 0 35 -4 35 -17z m-716 -45 c-4 -7 -19 -28 -32 -45 -35 -47 -10 -41 28 6 29
38 65 59 77 47 3 -3 -9 -23 -27 -46 -46 -58 -29 -62 23 -7 43 46 87 62 102 37
3 -5 1 -10 -6 -10 -18 0 -79 -61 -79 -79 0 -9 17 1 43 27 44 43 66 49 112 32
32 -12 24 -30 -13 -30 -36 0 -40 -4 -93 -80 -42 -58 -68 -110 -56 -110 2 0 21
13 42 30 39 31 69 38 81 19 7 -11 -73 -89 -116 -113 -14 -8 -46 -17 -72 -21
-30 -5 -56 -16 -72 -31 l-24 -24 -52 35 c-29 19 -58 35 -66 35 -22 0 -18 13
43 128 92 176 118 212 151 212 8 0 10 -5 6 -12z m748 -33 c18 -25 36 -45 40
-45 10 0 -8 37 -30 63 -8 9 -12 20 -8 24 11 11 39 -10 65 -50 29 -43 39 -42
17 2 -24 46 -20 62 13 42 10 -7 99 -292 101 -323 0 -5 -7 -8 -15 -8 -20 0
-111 -46 -120 -61 -5 -7 -18 2 -36 24 -21 26 -42 38 -79 47 -27 7 -61 21 -75
32 -24 18 -79 118 -70 126 12 12 53 -12 73 -43 22 -35 42 -46 42 -22 0 7 -16
45 -35 85 -24 50 -44 78 -65 90 -38 22 -39 42 -1 42 21 0 39 -12 70 -45 23
-25 44 -45 46 -45 13 0 2 20 -31 58 -30 35 -32 42 -17 42 24 0 44 -16 73 -58
12 -18 25 -31 28 -28 3 3 -7 24 -22 46 -30 46 -31 50 -11 50 9 0 30 -20 47
-45z m-434 -2 c-4 -36 -19 -37 -46 -2 l-24 29 37 0 c34 0 36 -2 33 -27z m82
-3 c0 -27 -3 -30 -30 -30 -27 0 -30 3 -30 30 0 27 3 30 30 30 27 0 30 -3 30
-30z m90 -1 c0 -28 -2 -30 -32 -27 -28 2 -34 8 -36 31 -3 25 -1 27 32 27 33 0
36 -2 36 -31z m34 -1 c4 -17 2 -28 -4 -28 -5 0 -10 14 -10 32 0 36 4 35 14 -4z
m-174 -68 c0 -27 -3 -30 -30 -30 -25 0 -30 4 -30 24 0 19 6 26 28 29 15 2 28
5 30 6 1 0 2 -12 2 -29z m180 -6 c0 -21 -5 -24 -35 -24 -30 0 -35 3 -35 24 0
19 6 25 28 28 36 5 42 1 42 -28z m-90 1 c0 -22 -4 -25 -34 -25 -30 0 -33 2
-28 25 3 20 10 25 33 25 24 0 29 -4 29 -25z m130 -16 c0 -5 -4 -9 -10 -9 -5 0
-10 7 -10 16 0 8 5 12 10 9 6 -3 10 -10 10 -16z m-300 1 c0 -5 -7 -10 -16 -10
-8 0 -12 5 -9 10 3 6 10 10 16 10 5 0 9 -4 9 -10z m260 -65 l0 -35 -141 0
c-139 0 -142 0 -166 26 -13 14 -21 30 -18 35 4 5 78 9 166 9 l159 0 0 -35z
m25 -65 c4 -7 -53 -10 -165 -10 -112 0 -169 3 -165 10 4 6 70 10 165 10 95 0
161 -4 165 -10z"/>
<path d="M1428 2120 c-20 -11 -40 -24 -43 -30 -4 -6 -11 -7 -17 -4 -7 4 -8 2
-4 -4 4 -7 2 -20 -4 -29 -11 -17 -11 -17 -6 0 3 10 2 16 -3 12 -18 -10 -22
-80 -7 -127 13 -46 120 -218 134 -218 9 0 104 141 125 185 27 56 30 101 8 150
-35 78 -108 104 -183 65z m111 -76 c24 -30 26 -43 10 -77 -31 -69 -139 -48
-139 27 0 50 24 76 70 76 30 0 43 -6 59 -26z"/>
<path d="M1442 2038 c-17 -17 -15 -63 3 -78 11 -9 20 -8 45 10 29 21 36 48 12
43 -6 -2 -16 6 -22 17 -12 23 -21 25 -38 8z"/>
<path d="M1284 1725 c-10 -8 -14 -15 -8 -15 6 0 17 7 24 15 16 19 9 19 -16 0z"/>
<path d="M1935 1680 c-4 -6 6 -7 27 -3 44 8 48 13 10 13 -17 0 -34 -4 -37 -10z"/>
<path d="M1077 1637 c-16 -11 -18 -38 -19 -261 -1 -230 1 -250 18 -263 14 -10
98 -13 404 -13 362 0 388 1 403 18 15 16 17 49 17 259 0 220 -2 241 -18 256
-17 15 -59 17 -403 17 -293 0 -389 -3 -402 -13z m303 -41 c0 -2 3 -11 6 -20 9
-23 -9 -20 -24 4 -10 17 -10 20 3 20 8 0 15 -2 15 -4z m-46 -42 c9 -24 0 -29
-19 -11 -19 19 -19 27 -1 27 8 0 17 -7 20 -16z m214 -9 c74 -31 122 -102 122
-179 0 -58 -14 -93 -53 -134 -45 -47 -78 -62 -137 -62 -174 0 -257 213 -131
334 54 52 133 68 199 41z m116 -16 c-9 -10 -21 -16 -26 -13 -5 3 -2 14 8 25 9
10 21 16 26 13 5 -3 2 -14 -8 -25z m-373 -10 c11 -5 17 -14 14 -19 -6 -10 -45
9 -45 22 0 11 8 10 31 -3z m-21 -49 c8 -5 12 -12 8 -15 -9 -9 -48 4 -48 16 0
12 21 11 40 -1z m460 1 c0 -10 -42 -23 -49 -15 -7 6 20 24 37 24 6 0 12 -4 12
-9z m-480 -51 c8 -5 12 -11 9 -14 -7 -8 -49 5 -49 15 0 12 21 11 40 -1z m10
-50 c0 -5 -14 -10 -31 -10 -17 0 -28 4 -24 10 3 6 17 10 31 10 13 0 24 -4 24
-10z m490 0 c0 -5 -11 -10 -25 -10 -14 0 -25 5 -25 10 0 6 11 10 25 10 14 0
25 -4 25 -10z m-490 -50 c0 -5 -4 -10 -9 -10 -5 0 -16 -3 -25 -6 -9 -3 -16 -1
-16 4 0 9 16 17 43 21 4 0 7 -3 7 -9z m490 0 c0 -5 -11 -10 -25 -10 -14 0 -25
5 -25 10 0 6 11 10 25 10 14 0 25 -4 25 -10z m-23 -57 c-9 -8 -48 8 -42 18 4
5 14 5 26 -2 12 -6 18 -13 16 -16z m-461 2 c-23 -17 -36 -19 -36 -6 0 11 18
19 40 20 11 0 10 -3 -4 -14z m34 -33 c0 -11 -41 -34 -48 -27 -4 4 2 13 12 21
22 15 36 18 36 6z m399 -1 c10 -6 10 -10 1 -16 -7 -4 -19 0 -28 9 -14 13 -14
16 -2 16 8 0 21 -4 29 -9z m-32 -57 c-9 -10 -38 16 -31 28 4 6 13 4 22 -6 9
-8 13 -19 9 -22z m-337 17 c0 -13 -29 -35 -37 -28 -7 8 15 37 28 37 5 0 9 -4
9 -9z"/>
<path d="M1507 1451 c-28 -26 -54 -41 -70 -41 -17 0 -32 -9 -42 -24 -9 -13
-25 -26 -36 -29 -15 -4 -20 -12 -17 -29 3 -21 9 -23 63 -26 85 -4 105 2 105
36 0 19 12 39 35 62 25 25 35 42 33 59 -5 38 -23 36 -71 -8z m19 -39 c-25 -25
-49 -43 -53 -39 -9 10 78 98 90 90 5 -3 -11 -26 -37 -51z"/>
<path d="M566 1442 c-8 -13 36 -24 48 -12 7 7 6 10 -1 10 -6 0 -18 3 -26 6 -8
3 -18 1 -21 -4z"/>
<path d="M630 1422 c0 -11 79 -31 85 -21 3 4 -11 13 -32 18 -46 13 -53 13 -53
3z"/>
<path d="M2343 1276 c-40 -18 -76 -35 -79 -39 -4 -4 55 -36 130 -71 l136 -65
88 40 87 41 -29 15 c-51 27 -246 113 -253 112 -5 0 -41 -15 -80 -33z"/>
<path d="M795 1220 c-3 -6 1 -7 9 -4 18 7 21 14 7 14 -6 0 -13 -4 -16 -10z"/>
<path d="M825 1210 c-3 -5 -2 -10 4 -10 5 0 13 5 16 10 3 6 2 10 -4 10 -5 0
-13 -4 -16 -10z"/>
<path d="M893 1193 c-7 -2 -13 -9 -13 -14 0 -14 26 -10 40 6 10 12 10 15 -1
14 -8 0 -20 -3 -26 -6z"/>
<path d="M179 1235 c-33 -18 -42 -40 -28 -66 30 -56 161 -49 176 9 14 56 -83
93 -148 57z m56 -14 c-27 -4 -57 -10 -65 -14 -8 -5 -6 -1 4 7 13 10 37 15 65
15 l46 -2 -50 -6z m45 -31 c0 -11 -68 -25 -78 -16 -3 4 0 11 8 16 20 13 70 13
70 0z"/>
<path d="M574 2789 c-7 -12 -9 -10 106 -114 130 -117 138 -110 15 14 -60 61
-111 111 -112 111 -1 0 -5 -5 -9 -11z"/>
<path d="M765 2790 c-4 -6 -2 -17 4 -23 15 -15 25 -2 13 19 -7 12 -11 13 -17
4z"/>
<path d="M956 2791 c-8 -12 43 -101 57 -101 13 0 7 20 -22 66 -17 28 -31 42
-35 35z"/>
<path d="M1110 2787 c0 -20 51 -130 57 -123 3 2 -5 32 -18 65 -22 61 -39 86
-39 58z"/>
<path d="M1847 2794 c-17 -29 -84 -194 -78 -194 11 0 94 176 89 191 -3 8 -7 9
-11 3z"/>
<path d="M2146 2673 c-65 -68 -116 -126 -113 -129 3 -3 61 49 128 115 81 77
121 123 114 129 -6 6 -52 -34 -129 -115z"/>
<path d="M2279 2694 c-57 -57 -98 -104 -91 -104 19 0 217 196 205 203 -5 3
-56 -41 -114 -99z"/>
<path d="M1960 2689 c-34 -55 -60 -102 -58 -104 3 -3 35 40 71 94 37 55 63
102 58 105 -4 3 -36 -40 -71 -95z"/>
<path d="M461 2753 c1 -14 140 -125 147 -118 8 9 -118 125 -135 125 -7 0 -13
-3 -12 -7z"/>
<path d="M2507 2684 c-42 -37 -77 -71 -77 -77 0 -11 -3 -13 103 72 42 34 77
64 77 67 0 17 -38 -6 -103 -62z"/>
<path d="M806 2731 c-7 -10 41 -57 50 -48 7 6 -27 56 -38 57 -4 0 -9 -4 -12
-9z"/>
<path d="M182 2722 c-16 -11 -3 -50 35 -105 43 -61 263 -210 263 -177 0 5 -4
12 -10 15 -21 13 -10 26 13 15 l22 -11 -22 17 c-13 9 -23 22 -23 28 0 7 -16
20 -35 29 -23 11 -33 21 -29 31 5 13 16 10 65 -14 72 -37 87 -38 65 -5 -16 24
-16 25 4 25 11 0 20 4 20 10 0 16 -72 58 -117 68 -23 5 -56 20 -73 32 -54 38
-148 60 -178 42z m48 -16 c0 -11 -19 -15 -25 -6 -3 5 1 10 9 10 9 0 16 -2 16
-4z m59 -11 c23 -8 53 -23 67 -34 20 -15 21 -20 8 -25 -8 -3 -12 -2 -9 4 3 5
-4 14 -15 20 -11 6 -20 7 -19 3 3 -13 -12 -43 -22 -43 -14 0 -11 28 4 33 6 2
9 8 4 13 -4 4 -15 1 -23 -8 -13 -13 -14 -20 -4 -39 11 -23 10 -23 -4 -5 -19
23 -20 42 -5 52 8 4 4 13 -12 25 -29 23 -24 23 30 4z m193 -81 c20 -10 27 -19
19 -23 -7 -4 -9 -15 -5 -26 8 -20 7 -20 -64 19 -28 16 -52 33 -52 38 0 14 69
9 102 -8z m-82 -84 c27 -14 40 -27 40 -41 0 -21 0 -21 -31 -2 -30 17 -69 63
-55 63 4 0 25 -9 46 -20z"/>
<path d="M2672 2638 c-30 -22 -51 -42 -48 -45 5 -6 92 52 101 68 15 23 -3 16
-53 -23z"/>
<path d="M877 2653 c-7 -10 111 -139 119 -130 4 3 -12 28 -34 54 -52 62 -79
86 -85 76z"/>
<path d="M1030 2649 c0 -9 7 -22 15 -29 19 -16 19 0 0 26 -12 16 -14 16 -15 3z"/>
<path d="M2563 2611 c-6 -10 -26 -25 -42 -32 -33 -15 -38 -24 -20 -34 6 -4 7
-19 4 -36 -6 -25 -4 -29 17 -29 13 0 32 -1 43 -2 11 0 29 3 40 7 18 8 18 7 6
-8 -7 -9 -9 -17 -3 -17 5 0 15 7 22 15 9 10 9 15 1 15 -14 0 -14 33 1 48 8 8
3 18 -21 41 -18 17 -30 35 -26 41 3 5 2 10 -2 10 -5 0 -13 -9 -20 -19z m27
-56 c10 -12 10 -18 0 -30 -25 -30 -61 -7 -46 30 3 8 12 15 19 15 8 0 20 -7 27
-15z"/>
<path d="M2514 2605 c-10 -8 -14 -15 -8 -15 6 0 17 7 24 15 16 19 9 19 -16 0z"/>
<path d="M1052 2548 c-24 -37 -22 -43 7 -33 15 4 21 15 21 36 0 37 -3 36 -28
-3z"/>
<path d="M1090 2556 c0 -18 5 -26 18 -27 9 0 -4 -7 -30 -16 -27 -9 -48 -21
-48 -27 1 -26 31 -47 78 -55 60 -9 77 -2 67 29 -5 15 -4 20 4 16 13 -8 15 62
3 81 -4 7 -27 15 -50 19 -40 6 -42 6 -42 -20z m84 -30 c-3 -9 -12 -16 -20 -16
-11 0 -10 4 4 18 20 22 25 21 16 -2z m-70 -24 c3 -5 -1 -9 -9 -9 -8 0 -12 4
-9 9 3 4 7 8 9 8 2 0 6 -4 9 -8z"/>
<path d="M2660 2540 c-14 -10 -22 -21 -19 -24 2 -3 18 6 34 19 35 29 22 33
-15 5z"/>
<path d="M2656 2432 c-99 -70 -182 -133 -184 -141 -5 -15 13 -3 236 152 126
87 160 117 135 117 -5 0 -89 -57 -187 -128z"/>
<path d="M1996 2528 c12 -5 27 -20 32 -32 8 -15 11 -17 11 -5 1 19 -30 49 -50
48 -8 0 -5 -5 7 -11z"/>
<path d="M2447 2514 c-22 -14 -37 -28 -34 -30 7 -7 77 36 77 47 0 12 2 12 -43
-17z"/>
<path d="M1872 2507 c-8 -10 -8 -19 1 -33 26 -39 58 -98 43 -80 -18 22 -23 20
-28 -9 -2 -16 3 -21 27 -23 34 -3 90 41 81 64 -3 8 -1 14 4 14 13 0 13 37 0
45 -5 3 -22 -1 -37 -8 -25 -13 -31 -12 -58 4 -16 11 -25 19 -19 19 5 0 19 -6
29 -14 15 -10 25 -11 39 -4 19 10 18 11 -5 24 -31 17 -64 18 -77 1z"/>
<path d="M1840 2441 c-9 -35 -9 -46 2 -52 20 -13 26 -11 38 10 14 26 13 32 -9
61 l-19 24 -12 -43z"/>
<path d="M100 2461 c0 -15 370 -244 380 -235 3 3 -2 10 -10 15 -8 5 -82 52
-165 104 -174 111 -205 129 -205 116z"/>
<path d="M2720 2383 c-178 -123 -232 -164 -226 -170 5 -6 116 64 278 175 43
29 78 60 78 68 0 8 -1 14 -2 14 -2 0 -59 -39 -128 -87z"/>
<path d="M100 2366 c0 -17 327 -216 355 -216 18 0 -19 27 -133 98 -206 128
-222 136 -222 118z"/>
<path d="M2700 2249 c-80 -49 -146 -94 -148 -99 -2 -5 64 29 147 77 83 47 151
92 151 99 0 8 -1 14 -2 13 -2 0 -68 -41 -148 -90z"/>
<path d="M960 2299 c0 -11 -7 -19 -17 -20 -11 0 -13 -3 -5 -6 6 -2 12 -15 12
-28 0 -26 33 -40 59 -25 10 6 11 10 4 10 -22 0 -14 18 10 23 l22 4 -22 8 c-27
9 -31 25 -6 25 23 0 11 9 -26 20 -27 7 -31 6 -31 -11z m30 -9 c0 -5 -4 -10
-10 -10 -5 0 -10 5 -10 10 0 6 5 10 10 10 6 0 10 -4 10 -10z m0 -40 c0 -5 -4
-10 -10 -10 -5 0 -10 5 -10 10 0 6 5 10 10 10 6 0 10 -4 10 -10z"/>
<path d="M1960 2260 c0 -11 -6 -20 -12 -20 -7 0 -5 -5 5 -11 18 -10 18 -11 0
-25 -19 -14 -21 -13 37 -19 14 -1 31 0 37 2 18 7 16 23 -2 23 -21 0 -19 18 3
23 16 4 16 5 0 6 -21 1 -23 12 -6 29 9 9 4 12 -25 12 -30 0 -37 -4 -37 -20z
m27 -12 c-3 -8 -6 -5 -6 6 -1 11 2 17 5 13 3 -3 4 -12 1 -19z m13 -28 c0 -5
-4 -10 -10 -10 -5 0 -10 5 -10 10 0 6 5 10 10 10 6 0 10 -4 10 -10z"/>
<path d="M102 2248 c2 -7 55 -39 117 -71 121 -64 166 -73 54 -12 -37 21 -92
51 -122 67 -31 17 -51 24 -49 16z"/>
<path d="M2775 2104 c-85 -42 -100 -65 -18 -28 32 14 66 28 76 31 9 3 17 12
17 19 0 8 -1 14 -2 13 -2 0 -34 -16 -73 -35z"/>
<path d="M102 2109 c4 -13 137 -73 145 -65 5 4 -129 76 -143 76 -3 0 -4 -5 -2
-11z"/>
<path d="M96 1991 c5 -5 23 -12 39 -16 l30 -6 -25 15 c-28 17 -60 22 -44 7z"/>
<path d="M2801 1984 c-19 -8 -32 -16 -30 -19 8 -7 79 17 79 27 0 11 -9 10 -49
-8z"/>
<path d="M100 1679 c0 -5 5 -7 10 -4 6 3 10 8 10 11 0 2 -4 4 -10 4 -5 0 -10
-5 -10 -11z"/>
<path d="M130 1520 c0 -5 7 -7 15 -4 8 4 15 8 15 10 0 2 -7 4 -15 4 -8 0 -15
-4 -15 -10z"/>
<path d="M2018 1411 c-50 -32 -53 -76 -9 -109 28 -20 31 -21 75 -6 44 15 46
18 46 53 0 32 -5 41 -37 62 l-38 24 -37 -24z m75 -16 c29 -8 27 -25 -3 -25
-11 0 -24 9 -30 19 -11 22 -14 42 -2 24 4 -6 19 -15 35 -18z m-53 -2 c0 -5 -6
-16 -13 -25 -12 -15 -14 -15 -25 2 -9 15 -8 19 6 23 28 7 32 7 32 0z m25 -33
c8 -13 -5 -13 -25 0 -13 8 -13 10 2 10 9 0 20 -4 23 -10z"/>
<path d="M105 1340 c-3 -5 -2 -10 4 -10 5 0 13 5 16 10 3 6 2 10 -4 10 -5 0
-13 -4 -16 -10z"/>
<path d="M2745 1340 c11 -17 108 -63 103 -49 -2 7 -28 24 -57 36 -29 13 -49
19 -46 13z"/>
<path d="M2033 1239 c3 -11 1 -16 -5 -13 -6 4 -8 -2 -6 -12 5 -29 46 -30 57
-2 6 17 4 25 -8 33 -29 17 -43 15 -38 -6z"/>
<path d="M2155 1100 c23 -45 80 -94 176 -153 72 -44 84 -55 76 -69 -14 -22 1
-40 69 -79 32 -18 72 -53 100 -89 49 -63 88 -86 131 -77 22 4 35 -1 60 -26 43
-41 56 -26 14 17 -29 30 -31 36 -21 56 7 13 10 38 6 58 -9 61 -50 106 -144
158 -47 27 -97 58 -112 70 -90 74 -280 164 -346 164 -24 0 -24 -1 -9 -30z m98
-9 c30 -11 86 -38 123 -60 37 -23 71 -41 76 -41 14 0 9 -18 -8 -24 -9 -4 -55
16 -112 49 -169 95 -187 113 -79 76z m244 -135 c4 -8 27 -25 51 -39 32 -18 39
-26 28 -30 -9 -4 -24 -22 -33 -42 -19 -39 -22 -39 -85 2 -37 24 -40 28 -21 31
12 2 33 -4 48 -14 14 -9 28 -15 30 -12 3 3 -15 16 -40 29 -50 27 -57 49 -23
73 28 20 35 20 45 2z m-77 -16 c0 -5 -2 -10 -4 -10 -3 0 -8 5 -11 10 -3 6 -1
10 4 10 6 0 11 -4 11 -10z m247 -89 c53 -38 73 -68 73 -108 0 -34 -31 -73 -58
-73 -9 0 -4 8 12 21 51 40 22 115 -61 158 -41 21 -35 11 13 -21 26 -18 50 -40
52 -48 3 -9 -7 -4 -24 11 -16 14 -40 33 -53 42 -14 9 -26 23 -27 32 -4 24 29
18 73 -14z"/>
<path d="M2013 1093 l-43 -15 0 -53 c0 -49 3 -55 32 -73 30 -20 33 -20 77 -3
46 16 46 17 49 69 3 49 1 53 -30 72 -38 23 -31 23 -85 3z m77 -25 c-11 -4 -20
-12 -20 -17 0 -10 -48 0 -72 15 -22 14 53 32 84 20 26 -10 27 -11 8 -18z m-63
-60 c-3 -7 -5 -2 -5 12 0 14 2 19 5 13 2 -7 2 -19 0 -25z m-23 4 c3 -5 -1 -9
-9 -9 -8 0 -12 4 -9 9 3 4 7 8 9 8 2 0 6 -4 9 -8z m100 -1 c3 -4 -4 -7 -14 -6
-27 2 -33 10 -10 12 11 1 22 -2 24 -6z"/>
<path d="M2030 1070 c0 -5 9 -10 20 -10 11 0 20 5 20 10 0 6 -9 10 -20 10 -11
0 -20 -4 -20 -10z"/>
<path d="M503 984 c-99 -106 -109 -120 -126 -181 -10 -36 -16 -67 -13 -71 12
-11 88 33 125 72 91 96 201 231 201 246 0 23 -32 50 -57 50 -14 0 -59 -40
-130 -116z m157 91 c19 -22 8 -25 -12 -3 -10 10 -14 18 -9 18 5 0 14 -7 21
-15z m-22 -14 c11 -6 -8 -33 -74 -105 -49 -53 -92 -96 -96 -96 -18 0 -5 18 48
70 30 30 69 73 86 95 16 22 -13 -4 -64 -59 -52 -54 -100 -97 -106 -95 -13 5
164 199 181 199 7 0 18 -4 25 -9z m-98 -164 c0 -2 -15 -16 -32 -33 l-33 -29
29 33 c28 30 36 37 36 29z m-78 -52 c15 -20 8 -41 -19 -57 -24 -13 -30 -14
-40 -2 -15 16 -16 16 -3 48 9 26 47 33 62 11z"/>
<path d="M838 1093 c-39 -10 -15 -19 38 -15 46 4 61 1 85 -17 21 -16 29 -18
29 -7 0 30 -93 55 -152 39z"/>
<path d="M845 1046 c-19 -14 -16 -15 31 -9 44 5 55 2 74 -17 12 -12 24 -19 28
-16 3 4 -3 16 -15 27 -27 27 -92 35 -118 15z"/>
<path d="M860 1010 c-16 -10 -8 -13 28 -10 13 1 30 -4 38 -11 8 -6 18 -9 22
-5 10 11 -28 36 -52 36 -12 0 -28 -5 -36 -10z"/>
<path d="M647 956 c-9 -23 22 -56 51 -56 21 0 24 -2 12 -10 -8 -5 -24 -7 -35
-4 -16 4 -37 -11 -87 -63 -37 -37 -74 -74 -83 -82 -11 -9 -15 -23 -12 -40 3
-15 -1 -34 -9 -45 -8 -11 -14 -35 -14 -53 l0 -34 -30 16 c-52 27 -69 -4 -25
-45 14 -13 25 -27 25 -32 0 -4 -36 -51 -80 -103 -44 -52 -80 -101 -80 -108 1
-6 38 27 83 76 45 48 85 87 90 87 18 0 2 -26 -73 -115 -44 -52 -80 -100 -80
-105 0 -24 24 -4 107 90 61 70 92 98 103 94 45 -19 87 -25 112 -15 28 11 208
234 208 259 0 7 -9 16 -21 19 -20 6 -20 6 -1 27 11 11 22 33 26 49 5 20 12 27
30 27 31 0 76 36 76 61 0 10 -4 19 -9 19 -5 0 -11 13 -14 29 -7 35 -44 61 -53
37 -5 -12 -14 -12 -62 5 -77 27 -148 33 -155 15z m59 -10 c10 2 51 -6 89 -20
39 -13 60 -25 48 -25 -12 -1 -34 4 -50 11 -15 6 -50 14 -77 17 -31 4 -51 12
-54 21 -4 12 -2 13 9 3 8 -7 24 -10 35 -7z m188 -54 c-14 -21 -67 -27 -106
-11 -40 16 -27 24 16 9 45 -15 76 -5 76 23 0 17 3 18 12 9 9 -9 10 -17 2 -30z
m-148 -48 c36 -15 68 -33 71 -41 5 -14 -49 -90 -125 -174 -54 -60 -90 -70
-156 -40 -42 18 -58 42 -37 55 4 3 35 -4 68 -16 32 -12 67 -19 76 -15 16 6
145 164 147 181 1 5 -26 21 -60 34 l-62 25 -69 -72 c-60 -62 -89 -83 -89 -66
0 11 146 155 157 155 7 0 42 -12 79 -26z m149 -4 c-3 -5 -18 -10 -33 -9 l-27
1 25 8 c35 11 42 11 35 0z m-171 -21 c31 -12 56 -26 56 -30 0 -12 -7 -11 -29
1 -16 8 -18 5 -15 -20 3 -25 0 -30 -17 -30 -31 0 -59 19 -59 39 0 22 22 33 48
25 14 -5 15 -4 2 5 -8 6 -23 11 -32 11 -10 0 -18 5 -18 10 0 13 0 13 64 -11z
m-85 -115 c-9 -11 -9 -14 1 -14 6 0 10 -6 7 -12 -2 -7 -11 -12 -21 -10 -9 2
-16 -2 -16 -8 0 -5 -7 -10 -15 -10 -8 0 -15 6 -15 14 0 7 -10 16 -22 19 -18 5
-19 8 -8 22 9 10 22 14 36 11 13 -4 25 -2 29 4 3 5 12 7 21 3 11 -4 12 -9 3
-19z m-209 -134 c0 -5 -2 -10 -4 -10 -3 0 -8 5 -11 10 -3 6 -1 10 4 10 6 0 11
-4 11 -10z m90 -69 c0 -12 -6 -9 -20 9 -26 33 -26 48 0 25 11 -10 20 -25 20
-34z"/>
<path d="M676 781 c-3 -5 1 -12 10 -15 25 -10 34 -7 34 9 0 16 -35 21 -44 6z"/>
<path d="M2110 929 c-34 -14 -60 -39 -60 -58 0 -11 8 -6 24 14 22 27 30 30 80
30 30 0 52 3 48 7 -14 14 -67 18 -92 7z"/>
<path d="M2120 899 c-24 -10 -40 -26 -40 -42 0 -5 12 1 26 12 15 12 41 21 58
22 26 0 28 2 11 9 -25 11 -25 11 -55 -1z"/>
<path d="M2115 859 c-11 -17 0 -20 21 -4 17 13 17 14 2 15 -9 0 -20 -5 -23
-11z"/>
<path d="M2145 839 c-50 -44 -48 -84 10 -200 34 -67 54 -95 79 -110 20 -12 85
-88 161 -190 92 -123 131 -167 139 -159 13 13 20 1 -116 179 -84 109 -104 140
-90 143 19 4 58 -36 177 -182 42 -52 80 -98 84 -102 3 -4 13 -3 21 2 11 7 -13
41 -109 160 -95 117 -120 154 -110 161 14 9 104 -76 219 -206 25 -28 40 -44
35 -35 -6 8 -38 47 -71 85 -97 113 -154 190 -154 208 0 63 -38 162 -81 211
-65 74 -135 87 -194 35z m60 11 c3 -5 1 -10 -4 -10 -6 0 -11 5 -11 10 0 6 2
10 4 10 3 0 8 -4 11 -10z m126 -110 c4 0 13 -9 19 -20 15 -28 -4 -60 -34 -60
-32 0 -50 24 -42 56 6 22 1 34 -30 65 -22 23 -33 42 -29 49 6 9 23 -3 57 -39
28 -28 54 -51 59 -51z m-74 -137 c28 -27 68 -29 103 -7 l25 16 -24 -21 c-47
-42 -103 -22 -154 54 -18 28 -45 68 -60 89 -15 21 -27 43 -27 48 0 5 25 -28
56 -74 31 -46 67 -93 81 -105z"/>
<path d="M105 840 c-10 -11 -14 -20 -8 -20 5 0 18 9 28 20 10 11 14 20 8 20
-5 0 -18 -9 -28 -20z"/>
<path d="M2360 833 c0 -15 59 -86 255 -303 137 -153 197 -208 184 -172 -2 6
-90 104 -195 219 -105 114 -203 222 -217 238 -15 17 -27 25 -27 18z"/>
<path d="M167 723 c-30 -38 -53 -70 -51 -72 5 -6 123 120 124 132 1 20 -23 1
-73 -60z"/>
<path d="M242 671 c-18 -23 -29 -41 -24 -41 14 0 64 58 60 70 -2 6 -18 -7 -36
-29z"/>
<path d="M415 699 c-11 -17 1 -21 15 -4 8 9 8 15 2 15 -6 0 -14 -5 -17 -11z"/>
<path d="M308 578 c-117 -131 -188 -215 -188 -222 0 -21 32 10 144 139 110
127 138 165 122 165 -2 0 -37 -37 -78 -82z"/>
<path d="M2040 633 c0 -15 111 -183 121 -183 15 0 11 7 -47 93 -64 94 -74 105
-74 90z"/>
<path d="M2485 555 c21 -36 64 -90 158 -203 47 -55 73 -80 80 -73 9 9 -82 119
-227 275 l-29 31 18 -30z"/>
<path d="M2691 563 c26 -36 83 -93 92 -93 5 0 -13 25 -38 55 -26 30 -52 55
-57 55 -6 0 -5 -8 3 -17z"/>
<path d="M2186 521 c-3 -4 47 -82 110 -172 134 -190 129 -183 143 -175 7 5 0
24 -21 54 -46 68 -219 302 -223 302 -2 0 -6 -4 -9 -9z"/>
<path d="M260 385 c-39 -46 -70 -90 -68 -96 4 -11 129 126 149 164 23 42 -14
11 -81 -68z"/>
<path d="M2176 422 c-3 -5 29 -57 70 -118 68 -99 94 -129 94 -108 0 9 -149
234 -155 234 -2 0 -6 -4 -9 -8z"/>
<path d="M500 293 c-81 -99 -83 -104 -73 -114 7 -7 33 18 77 75 36 46 66 87
66 90 0 20 -31 -3 -70 -51z"/>
<path d="M1227 303 c-11 -18 -19 -128 -9 -118 6 6 13 36 17 68 7 52 4 69 -8
50z"/>
<path d="M1156 289 c-11 -29 -25 -104 -20 -108 8 -8 14 6 24 59 9 50 7 80 -4
49z"/>
</g>
</svg>
