<?xml version="1.0" standalone="no"?>
<!DOCTYPE svg PUBLIC "-//W3C//DTD SVG 20010904//EN"
 "http://www.w3.org/TR/2001/REC-SVG-20010904/DTD/svg10.dtd">
<svg version="1.0" xmlns="http://www.w3.org/2000/svg"
 width="1024.000000pt" height="1024.000000pt" viewBox="0 0 1024.000000 1024.000000"
 preserveAspectRatio="xMidYMid meet">

<g transform="translate(0.000000,1024.000000) scale(0.100000,-0.100000)"
fill="#000000" stroke="none">
<path d="M5410 9226 c-577 -90 -1197 -464 -1583 -953 -23 -29 -43 -51 -44 -49
-6 5 16 96 43 180 73 228 231 440 453 609 125 96 174 128 263 177 40 22 65 40
56 40 -50 0 -246 -47 -336 -80 -218 -82 -399 -205 -579 -394 -268 -281 -441
-621 -497 -978 -47 -297 -19 -577 86 -853 29 -77 34 -100 30 -155 l-3 -65
-105 3 c-68 3 -131 -2 -182 -12 -116 -24 -329 -97 -407 -141 -90 -49 -212
-171 -249 -246 -40 -84 -60 -196 -48 -269 32 -182 190 -333 391 -376 47 -10
143 -14 332 -14 l266 0 12 -67 c24 -131 109 -245 226 -306 51 -26 74 -31 150
-35 l90 -5 68 -115 c37 -64 66 -121 63 -128 -4 -10 -179 -117 -636 -387 -435
-258 -663 -401 -1040 -654 -329 -220 -547 -376 -623 -445 -40 -37 -47 -49 -47
-81 0 -26 8 -46 29 -69 45 -51 81 -45 193 31 399 273 763 506 965 620 51 28
172 90 270 136 l178 85 -80 -76 c-205 -195 -636 -549 -782 -642 -24 -15 -43
-30 -43 -34 0 -4 19 -12 43 -18 92 -25 519 -171 642 -220 377 -151 681 -323
895 -506 261 -224 470 -564 675 -1099 53 -138 177 -502 209 -613 l33 -113 133
-79 c74 -44 136 -78 138 -76 6 7 -283 855 -432 1266 -47 129 -84 235 -83 236
3 2 146 -86 339 -209 92 -58 182 -114 199 -122 l31 -16 196 123 c240 151 366
227 370 223 2 -1 -28 -90 -67 -196 -238 -661 -448 -1285 -438 -1296 5 -5 248
134 263 150 6 7 19 44 29 82 29 111 178 548 251 732 191 488 424 841 688 1048
320 249 833 491 1399 661 70 20 127 41 127 45 0 4 -20 19 -44 33 -114 67 -406
298 -666 527 -242 213 -242 213 -49 118 322 -159 535 -287 1017 -608 162 -108
307 -204 324 -215 26 -16 35 -17 69 -7 76 23 100 111 47 168 -35 38 -468 344
-713 505 -271 177 -651 413 -1015 629 -287 170 -579 347 -593 359 -7 6 102
196 135 237 6 7 20 10 33 7 33 -8 129 12 195 42 39 17 78 46 113 83 102 106
127 187 127 403 l0 148 293 0 292 0 29 -46 c34 -54 97 -98 166 -114 97 -23
221 40 270 136 33 65 34 160 3 220 -28 53 -105 121 -152 134 -101 28 -199 -4
-272 -89 l-44 -51 -292 0 -293 0 0 416 0 415 29 -17 c15 -9 84 -56 152 -104
l124 -87 3 76 c12 286 -88 610 -271 879 -42 62 -77 114 -77 117 0 3 20 5 44 5
25 0 80 11 123 25 195 61 330 194 412 402 l20 52 -98 55 c-54 31 -104 58 -112
61 -9 3 -25 -17 -49 -62 -40 -80 -108 -156 -165 -186 -63 -34 -212 -30 -380
11 -250 60 -306 67 -590 66 -146 0 -282 -5 -310 -11 l-50 -11 49 45 c62 55
146 99 232 119 78 18 285 20 346 4 22 -6 42 -9 45 -6 8 8 -230 161 -336 215
-237 122 -451 170 -704 158 -73 -4 -152 -9 -177 -13 l-45 -6 80 52 c105 68
197 114 292 147 67 23 94 27 193 27 186 0 295 -41 524 -199 147 -101 225 -140
324 -166 125 -32 227 -22 336 33 64 32 159 116 182 161 17 31 12 73 -18 154
-30 80 -36 82 -115 22 -132 -100 -234 -127 -349 -94 -67 19 -114 46 -263 152
-134 95 -279 166 -406 199 -123 32 -357 41 -495 20z m-746 -692 c-95 -68 -272
-223 -374 -329 -57 -58 -95 -87 -155 -117 -92 -47 -201 -115 -262 -165 -49
-39 -52 -38 -20 9 190 278 362 440 581 549 84 41 257 106 290 108 10 0 -17
-24 -60 -55z m994 -53 c20 -5 13 -10 -45 -35 -37 -16 -120 -55 -183 -86 -167
-82 -269 -118 -500 -174 -91 -22 -310 -55 -305 -45 10 15 242 167 315 206 132
70 269 114 405 132 82 10 280 12 313 2z m-27 -557 c130 -26 248 -85 371 -183
75 -59 189 -175 208 -211 10 -19 8 -20 -48 -20 -55 0 -61 2 -84 33 -38 49
-145 150 -218 204 -72 55 -210 119 -340 159 -47 14 -94 30 -105 35 -28 13 133
1 216 -17z m963 -108 c114 -21 120 -24 144 -57 44 -62 103 -198 128 -296 26
-102 44 -268 28 -262 -5 2 -27 15 -50 28 -36 22 -42 31 -52 80 -25 119 -126
286 -267 445 -49 55 -80 96 -70 92 11 -5 74 -18 139 -30z m-194 -526 c122 -36
225 -121 266 -219 31 -75 44 -71 -237 -71 -237 0 -256 1 -333 24 -137 41 -196
50 -331 50 -145 0 -242 -20 -362 -74 -117 -53 -258 -170 -334 -275 -28 -39
-35 -43 -86 -48 -167 -17 -320 -174 -379 -387 -15 -56 -18 -118 -21 -452 l-4
-388 -90 0 -90 0 3 403 c4 432 5 437 62 579 87 215 265 375 473 428 38 10 47
19 99 97 146 224 278 333 427 352 28 3 236 5 462 3 373 -2 416 -4 475 -22z
m-1427 -68 c-152 -205 -145 -198 -205 -221 -32 -13 -91 -44 -131 -70 -245
-160 -392 -406 -426 -714 -6 -53 -11 -247 -11 -432 l0 -335 -249 0 -249 0 -6
153 c-4 83 -5 427 -4 764 l3 612 -85 3 c-98 3 -104 10 -74 86 32 85 119 159
211 181 21 5 312 9 646 10 l609 1 -29 -38z m1716 -745 c-1 -183 -5 -343 -9
-357 -7 -21 -8 -19 -9 16 -1 60 -27 200 -52 279 -38 125 -121 269 -208 363
-17 18 -31 34 -31 35 0 1 70 1 155 -1 l155 -3 -1 -332z m-480 216 c87 -65 181
-192 222 -302 100 -267 38 -588 -153 -784 -56 -56 -91 -83 -148 -110 -131 -62
-178 -72 -340 -72 -133 0 -152 2 -234 29 -227 75 -382 250 -441 499 -7 31 -12
57 -10 57 2 0 16 -24 33 -52 86 -153 277 -289 469 -334 92 -22 245 -14 330 16
157 55 279 173 341 327 23 60 26 81 26 188 0 139 -16 193 -91 307 -70 106
-158 174 -283 219 l-55 20 45 -7 c24 -4 71 -17 105 -29 l61 -23 32 39 c18 21
38 39 44 39 6 0 27 -12 47 -27z m-267 -162 c74 -35 149 -109 179 -175 23 -54
41 -174 29 -195 -7 -12 -9 -9 -10 15 0 44 -45 128 -97 180 -143 143 -365 147
-504 10 -59 -57 -97 -138 -107 -223 l-8 -68 -13 74 c-12 64 -11 82 3 140 33
133 137 236 273 271 72 18 184 5 255 -29z m-2642 -357 l0 -346 -277 7 c-153 3
-294 11 -315 16 -20 5 -63 27 -95 49 -184 122 -150 356 70 484 52 31 201 86
310 115 51 14 106 20 190 20 l117 1 0 -346z m4491 -123 c34 -34 37 -68 9 -104
-39 -49 -106 -43 -135 14 -45 86 57 159 126 90z m-1103 -283 c-4 -99 -10 -155
-21 -181 -32 -74 -125 -136 -204 -137 -24 0 -43 3 -43 6 0 3 25 40 56 82 66
90 128 216 152 307 15 57 20 65 41 65 l24 0 -5 -142z m-1571 -568 c56 -49 147
-95 216 -110 34 -7 174 -10 389 -8 l336 3 -16 -28 c-35 -58 -207 -266 -300
-361 -121 -123 -229 -211 -307 -247 -191 -90 -455 -94 -637 -11 -89 41 -166
102 -298 239 -167 171 -263 286 -408 491 l-52 72 516 0 516 0 45 -40z m-923
-658 c141 -217 277 -432 400 -632 l127 -205 85 -38 c47 -21 88 -37 90 -34 2 2
-12 33 -32 68 -49 87 -168 326 -156 314 5 -5 44 -50 85 -100 41 -49 93 -110
115 -135 l39 -44 159 99 c232 145 491 315 634 416 106 76 142 109 240 222
l115 133 6 -531 c4 -291 10 -539 13 -550 6 -17 -86 -305 -244 -763 l-22 -62
-151 -108 c-84 -59 -250 -177 -369 -260 l-217 -153 -113 77 c-123 85 -456 321
-553 392 -33 24 -63 50 -68 57 -4 7 -67 186 -140 397 l-133 383 4 583 c2 320
7 582 11 582 3 -1 37 -49 75 -108z"/>
<path d="M3815 6795 c-37 -36 -35 -97 5 -136 l30 -30 151 3 151 3 29 33 c37
41 38 80 3 121 l-26 31 -159 0 c-156 0 -160 -1 -184 -25z"/>
<path d="M2795 7772 c-53 -33 -259 -263 -376 -422 -261 -352 -446 -744 -559
-1185 -117 -451 -132 -944 -45 -1424 28 -154 36 -175 76 -191 36 -15 74 -3
105 33 20 24 24 37 19 61 -16 81 -56 353 -65 451 -78 839 250 1762 863 2425
123 132 127 139 127 176 0 26 -8 43 -29 65 -34 34 -72 38 -116 11z"/>
<path d="M7312 7765 c-32 -27 -45 -67 -32 -100 4 -12 43 -59 86 -106 360 -392
592 -775 745 -1232 177 -526 212 -1012 113 -1559 -25 -136 -26 -153 -13 -177
33 -59 123 -61 153 -3 14 27 55 241 78 407 17 122 17 608 0 745 -68 540 -282
1098 -584 1525 -134 189 -369 463 -435 507 -38 25 -76 23 -111 -7z"/>
<path d="M2402 5336 c-80 -44 -82 -180 -2 -221 115 -60 235 60 175 175 -28 54
-117 78 -173 46z"/>
<path d="M7676 5329 c-14 -11 -33 -34 -41 -49 -42 -81 19 -180 109 -180 53 0
85 17 114 60 35 52 26 113 -22 157 -30 28 -43 33 -85 33 -34 0 -56 -6 -75 -21z"/>
<path d="M1958 4360 c-27 -27 -30 -36 -25 -71 10 -76 86 -103 146 -53 25 20
31 34 31 63 0 86 -91 122 -152 61z"/>
<path d="M8129 4361 c-33 -34 -38 -74 -12 -111 23 -34 33 -40 70 -40 47 0 93
42 93 87 0 46 -45 93 -90 93 -22 0 -41 -9 -61 -29z"/>
<path d="M7955 3265 c-184 -51 -380 -118 -605 -207 -203 -81 -521 -233 -633
-303 l-57 -37 28 -36 c16 -21 91 -115 166 -211 75 -95 136 -176 135 -180 -1
-11 -218 -176 -229 -173 -5 1 -9 -4 -8 -10 2 -7 -5 -12 -14 -12 -10 1 -16 -1
-13 -5 5 -9 -1 -13 -120 -106 -50 -38 -121 -95 -160 -127 -69 -58 -69 -58 -89
-39 -20 20 -20 21 18 134 20 62 44 126 52 142 14 27 13 31 -13 68 -16 22 -51
75 -79 118 l-51 78 -20 -22 c-103 -114 -445 -737 -554 -1010 -34 -84 -119
-323 -119 -334 0 -9 326 172 615 342 50 29 196 112 325 185 602 341 1586 908
1780 1027 36 22 139 82 230 133 91 51 196 110 234 132 l68 40 -193 110 c-217
123 -320 184 -457 270 -51 32 -98 61 -105 63 -7 2 -66 -11 -132 -30z"/>
<path d="M2120 3279 c-8 -5 -63 -38 -123 -72 -59 -35 -104 -67 -100 -72 5 -4
2 -5 -5 -1 -8 5 -102 -43 -245 -125 -128 -72 -240 -137 -250 -144 -18 -13 25
-41 278 -180 171 -94 237 -132 297 -171 110 -70 666 -390 1618 -929 620 -351
966 -549 999 -571 19 -13 36 -22 38 -20 8 7 -62 206 -118 340 -108 254 -352
710 -503 938 -56 85 -243 298 -260 297 -11 0 -190 -281 -238 -375 -15 -29 -32
-55 -37 -59 -7 -4 -208 130 -240 161 -7 6 31 56 182 242 81 101 147 185 145
187 -2 1 -47 28 -102 60 -276 161 -734 350 -1106 454 -158 45 -209 54 -230 40z"/>
<path d="M6460 2549 c0 -5 5 -7 10 -4 6 3 10 8 10 11 0 2 -4 4 -10 4 -5 0 -10
-5 -10 -11z"/>
<path d="M6469 2523 c-12 -16 -12 -17 2 -6 9 7 20 9 24 5 5 -4 5 -1 1 6 -9 16
-11 15 -27 -5z"/>
<path d="M6490 2486 c0 -2 7 -7 16 -10 8 -3 12 -2 9 4 -6 10 -25 14 -25 6z"/>
<path d="M6580 2321 c0 -5 5 -13 10 -16 6 -3 10 -2 10 4 0 5 -4 13 -10 16 -5
3 -10 2 -10 -4z"/>
<path d="M6610 2313 c0 -6 8 -17 18 -24 16 -13 16 -13 2 6 -8 11 -16 22 -17
24 -2 2 -3 0 -3 -6z"/>
<path d="M6660 2181 c0 -6 4 -13 10 -16 6 -3 7 1 4 9 -7 18 -14 21 -14 7z"/>
</g>
</svg>
